<svg width="122" height="66" viewBox="0 0 122 66" fill="none" xmlns="http://www.w3.org/2000/svg">
<path d="M49.923 47.9999V38.8349H51.938V47.9999H49.923ZM53.6007 47.9999V41.6169H55.5247V42.7219C55.828 41.9765 56.478 41.5649 57.4747 41.4869L58.0467 41.4479L58.1637 43.0989L57.0587 43.2159C56.088 43.3112 55.6027 43.8052 55.6027 44.6979V47.9999H53.6007ZM61.0526 48.1429C60.576 48.1429 60.1556 48.0519 59.7916 47.8699C59.4276 47.6879 59.1373 47.4409 58.9206 47.1289C58.7126 46.8169 58.6086 46.4659 58.6086 46.0759C58.6086 45.6165 58.73 45.2482 58.9726 44.9709C59.2153 44.6935 59.6096 44.4985 60.1556 44.3859C60.7016 44.2645 61.4253 44.2039 62.3266 44.2039H62.7946V43.9829C62.7946 43.6015 62.708 43.3329 62.5346 43.1769C62.3613 43.0122 62.0666 42.9299 61.6506 42.9299C61.304 42.9299 60.9356 42.9862 60.5456 43.0989C60.1643 43.2029 59.783 43.3632 59.4016 43.5799L58.8686 42.2669C59.094 42.1195 59.367 41.9852 59.6876 41.8639C60.017 41.7425 60.3593 41.6515 60.7146 41.5909C61.07 41.5215 61.408 41.4869 61.7286 41.4869C62.7166 41.4869 63.4533 41.7122 63.9386 42.1629C64.424 42.6049 64.6666 43.2939 64.6666 44.2299V47.9999H62.8336V47.0379C62.7036 47.3759 62.4826 47.6445 62.1706 47.8439C61.8673 48.0432 61.4946 48.1429 61.0526 48.1429ZM61.4946 46.8299C61.8586 46.8299 62.1663 46.7042 62.4176 46.4529C62.669 46.2015 62.7946 45.8765 62.7946 45.4779V45.2179H62.3396C61.6723 45.2179 61.2 45.2785 60.9226 45.3999C60.6453 45.5125 60.5066 45.7119 60.5066 45.9979C60.5066 46.2405 60.589 46.4399 60.7536 46.5959C60.927 46.7519 61.174 46.8299 61.4946 46.8299ZM66.131 47.9999V38.8349H68.094V44.2559H68.12L70.473 41.6169H72.8L70.096 44.6719L72.93 47.9999H70.564L68.12 45.2439H68.094V47.9999H66.131ZM75.733 48.1429C74.9183 48.1429 74.316 47.9175 73.926 47.4669C73.5446 47.0162 73.354 46.3402 73.354 45.4389V41.6169H75.317V45.4909C75.317 46.2449 75.642 46.6219 76.292 46.6219C76.6646 46.6219 76.968 46.4919 77.202 46.2319C77.4446 45.9632 77.566 45.6122 77.566 45.1789V41.6169H79.529V47.9999H77.618V47.1289C77.1933 47.8049 76.565 48.1429 75.733 48.1429ZM81.0479 47.9999V41.6169H82.9719V42.7219C83.2753 41.9765 83.9253 41.5649 84.9219 41.4869L85.4939 41.4479L85.6109 43.0989L84.5059 43.2159C83.5353 43.3112 83.0499 43.8052 83.0499 44.6979V47.9999H81.0479ZM86.3274 40.3819V38.5489H88.4464V40.3819H86.3274ZM86.4054 47.9999V41.6169H88.3684V47.9999H86.4054ZM93.671 47.9999V38.8349H95.686V42.5139H99.95V38.8349H101.965V47.9999H99.95V44.1909H95.686V47.9999H93.671ZM105.999 48.1429C105.184 48.1429 104.582 47.9175 104.192 47.4669C103.81 47.0162 103.62 46.3402 103.62 45.4389V41.6169H105.583V45.4909C105.583 46.2449 105.908 46.6219 106.558 46.6219C106.93 46.6219 107.234 46.4919 107.468 46.2319C107.71 45.9632 107.832 45.6122 107.832 45.1789V41.6169H109.795V47.9999H107.884V47.1289C107.459 47.8049 106.831 48.1429 105.999 48.1429ZM115.253 48.1429C114.802 48.1429 114.395 48.0432 114.031 47.8439C113.675 47.6445 113.411 47.3802 113.238 47.0509V47.9999H111.314V38.8349H113.277V42.4749C113.467 42.1715 113.736 41.9332 114.083 41.7599C114.438 41.5779 114.828 41.4869 115.253 41.4869C115.807 41.4869 116.293 41.6212 116.709 41.8899C117.133 42.1585 117.463 42.5399 117.697 43.0339C117.931 43.5279 118.048 44.1172 118.048 44.8019C118.048 45.4865 117.931 46.0802 117.697 46.5829C117.463 47.0769 117.133 47.4625 116.709 47.7399C116.293 48.0085 115.807 48.1429 115.253 48.1429ZM114.668 46.6739C115.084 46.6739 115.422 46.5222 115.682 46.2189C115.942 45.9155 116.072 45.4432 116.072 44.8019C116.072 44.1692 115.942 43.7055 115.682 43.4109C115.422 43.1075 115.084 42.9559 114.668 42.9559C114.243 42.9559 113.901 43.1075 113.641 43.4109C113.381 43.7055 113.251 44.1692 113.251 44.8019C113.251 45.4432 113.381 45.9155 113.641 46.2189C113.901 46.5222 114.243 46.6739 114.668 46.6739Z" fill="#2E377F"/>
<mask id="path-2-inside-1" fill="white">
<path fill-rule="evenodd" clip-rule="evenodd" d="M36.9745 13.9962C36.9745 13.9962 36.9745 13.9962 36.9745 13.9961C33.2884 6.58893 23.6543 3.89145 15.4561 7.97117C7.2579 12.0509 3.60013 21.3629 7.28623 28.7701C7.28624 28.7701 7.28625 28.7701 7.28625 28.7702L36.9745 13.9962Z"/>
</mask>
<path fill-rule="evenodd" clip-rule="evenodd" d="M36.9745 13.9962C36.9745 13.9962 36.9745 13.9962 36.9745 13.9961C33.2884 6.58893 23.6543 3.89145 15.4561 7.97117C7.2579 12.0509 3.60013 21.3629 7.28623 28.7701C7.28624 28.7701 7.28625 28.7701 7.28625 28.7702L36.9745 13.9962Z" fill="#2E377F"/>
<path d="M36.9745 13.9962L37.6428 15.3391L38.9857 14.6708L38.3174 13.3279L36.9745 13.9962ZM7.28625 28.7702L5.94335 29.4384L6.61163 30.7813L7.95453 30.1131L7.28625 28.7702ZM35.6316 14.6644C35.6316 14.6644 35.6316 14.6644 35.6316 14.6644C35.6316 14.6644 35.6316 14.6644 35.6316 14.6644C35.6316 14.6644 35.6316 14.6644 35.6316 14.6644C35.6316 14.6644 35.6316 14.6644 35.6316 14.6644C35.6316 14.6644 35.6316 14.6644 35.6316 14.6644C35.6316 14.6644 35.6316 14.6644 35.6316 14.6644C35.6316 14.6644 35.6316 14.6644 35.6316 14.6644C35.6316 14.6644 35.6316 14.6644 35.6316 14.6644C35.6316 14.6644 35.6316 14.6644 35.6316 14.6644C35.6316 14.6644 35.6316 14.6644 35.6316 14.6644C35.6316 14.6644 35.6316 14.6644 35.6316 14.6644C35.6316 14.6644 35.6316 14.6644 35.6316 14.6644C35.6316 14.6644 35.6316 14.6644 35.6316 14.6644C35.6316 14.6644 35.6316 14.6644 35.6316 14.6644C35.6316 14.6644 35.6316 14.6644 35.6316 14.6644C35.6316 14.6644 35.6316 14.6644 35.6316 14.6644C35.6316 14.6644 35.6316 14.6644 35.6316 14.6644C35.6316 14.6644 35.6316 14.6644 35.6316 14.6644C35.6316 14.6644 35.6316 14.6644 35.6316 14.6644C35.6316 14.6644 35.6316 14.6644 35.6316 14.6644C35.6316 14.6644 35.6316 14.6644 35.6316 14.6644C35.6316 14.6644 35.6316 14.6644 35.6316 14.6644C35.6316 14.6644 35.6316 14.6644 35.6316 14.6644C35.6316 14.6644 35.6316 14.6644 35.6316 14.6644C35.6316 14.6644 35.6316 14.6644 35.6316 14.6644C35.6316 14.6644 35.6316 14.6644 35.6316 14.6644C35.6316 14.6644 35.6316 14.6644 35.6316 14.6644C35.6316 14.6644 35.6316 14.6644 35.6316 14.6644C35.6316 14.6644 35.6316 14.6644 35.6316 14.6644C35.6316 14.6644 35.6316 14.6644 35.6316 14.6644C35.6316 14.6644 35.6316 14.6644 35.6316 14.6644C35.6316 14.6644 35.6316 14.6644 35.6316 14.6644C35.6316 14.6644 35.6316 14.6644 35.6316 14.6644C35.6316 14.6644 35.6316 14.6644 35.6316 14.6644C35.6316 14.6644 35.6316 14.6644 35.6316 14.6644C35.6316 14.6644 35.6316 14.6644 35.6316 14.6644C35.6316 14.6644 35.6316 14.6644 35.6316 14.6644C35.6316 14.6644 35.6316 14.6644 35.6316 14.6644C35.6316 14.6644 35.6316 14.6644 35.6316 14.6644C35.6316 14.6644 35.6316 14.6644 35.6316 14.6644C35.6316 14.6644 35.6316 14.6644 35.6316 14.6644C35.6316 14.6644 35.6316 14.6644 35.6316 14.6644C35.6316 14.6644 35.6316 14.6644 35.6316 14.6644C35.6316 14.6644 35.6316 14.6644 35.6316 14.6644C35.6316 14.6644 35.6316 14.6644 35.6316 14.6644C35.6316 14.6644 35.6316 14.6644 35.6316 14.6644C35.6316 14.6644 35.6316 14.6644 35.6316 14.6644C35.6316 14.6644 35.6316 14.6644 35.6316 14.6644C35.6316 14.6644 35.6316 14.6644 35.6316 14.6644C35.6316 14.6644 35.6316 14.6644 35.6316 14.6644C35.6316 14.6644 35.6316 14.6644 35.6316 14.6644C35.6316 14.6644 35.6316 14.6644 35.6316 14.6644C35.6316 14.6644 35.6316 14.6644 35.6316 14.6644C35.6316 14.6644 35.6316 14.6644 35.6316 14.6644C35.6316 14.6644 35.6316 14.6644 35.6316 14.6644C35.6316 14.6644 35.6316 14.6644 35.6316 14.6644C35.6316 14.6644 35.6316 14.6644 35.6316 14.6644C35.6316 14.6644 35.6316 14.6644 35.6316 14.6644C35.6316 14.6644 35.6316 14.6644 35.6316 14.6644C35.6316 14.6644 35.6316 14.6644 35.6316 14.6644C35.6316 14.6644 35.6316 14.6644 35.6316 14.6644C35.6316 14.6644 35.6316 14.6644 35.6316 14.6644C35.6316 14.6644 35.6316 14.6644 35.6316 14.6644C35.6316 14.6644 35.6316 14.6644 35.6316 14.6644C35.6316 14.6644 35.6316 14.6644 35.6316 14.6644C35.6316 14.6644 35.6316 14.6644 35.6316 14.6644C35.6316 14.6644 35.6316 14.6644 35.6316 14.6644C35.6316 14.6644 35.6316 14.6644 35.6316 14.6644C35.6316 14.6644 35.6316 14.6644 35.6316 14.6644C35.6316 14.6644 35.6316 14.6644 35.6316 14.6644C35.6316 14.6644 35.6316 14.6644 35.6316 14.6644C35.6316 14.6644 35.6316 14.6644 35.6316 14.6644C35.6316 14.6644 35.6316 14.6644 35.6316 14.6644C35.6316 14.6644 35.6316 14.6644 35.6316 14.6644C35.6316 14.6644 35.6316 14.6644 35.6316 14.6644C35.6316 14.6644 35.6316 14.6644 35.6316 14.6644C35.6316 14.6644 35.6316 14.6644 35.6316 14.6644C35.6316 14.6644 35.6316 14.6644 35.6316 14.6644C35.6316 14.6644 35.6316 14.6644 35.6316 14.6644C35.6316 14.6644 35.6316 14.6644 35.6316 14.6644C35.6316 14.6644 35.6316 14.6644 35.6316 14.6644C35.6316 14.6644 35.6316 14.6644 35.6316 14.6644C35.6316 14.6644 35.6316 14.6644 35.6316 14.6644C35.6316 14.6644 35.6316 14.6644 35.6316 14.6644C35.6316 14.6644 35.6316 14.6644 35.6316 14.6644C35.6316 14.6644 35.6316 14.6644 35.6316 14.6644C35.6316 14.6644 35.6316 14.6644 35.6316 14.6644C35.6316 14.6644 35.6316 14.6644 35.6316 14.6644C35.6316 14.6644 35.6316 14.6644 35.6316 14.6644C35.6316 14.6644 35.6316 14.6644 35.6316 14.6644C35.6316 14.6644 35.6316 14.6644 35.6316 14.6644C35.6316 14.6644 35.6316 14.6644 35.6316 14.6644C35.6316 14.6644 35.6316 14.6644 35.6316 14.6644C35.6316 14.6644 35.6316 14.6644 35.6316 14.6644C35.6316 14.6644 35.6316 14.6644 35.6316 14.6644C35.6316 14.6644 35.6316 14.6644 35.6316 14.6644C35.6316 14.6644 35.6316 14.6644 35.6316 14.6644C35.6316 14.6644 35.6316 14.6644 35.6316 14.6644C35.6316 14.6644 35.6316 14.6644 35.6316 14.6644C35.6316 14.6644 35.6316 14.6644 35.6316 14.6644C35.6316 14.6644 35.6316 14.6644 35.6316 14.6644C35.6316 14.6644 35.6316 14.6644 35.6316 14.6644C35.6316 14.6644 35.6316 14.6644 35.6316 14.6644C35.6316 14.6644 35.6316 14.6644 35.6316 14.6644C35.6316 14.6644 35.6316 14.6644 35.6316 14.6644C35.6316 14.6644 35.6316 14.6644 35.6316 14.6644C35.6316 14.6644 35.6316 14.6644 35.6316 14.6644C35.6316 14.6644 35.6316 14.6644 35.6316 14.6644C35.6316 14.6644 35.6316 14.6644 35.6316 14.6644C35.6316 14.6644 35.6316 14.6644 35.6316 14.6644C35.6316 14.6644 35.6316 14.6644 35.6316 14.6644C35.6316 14.6644 35.6316 14.6644 35.6316 14.6644C35.6316 14.6644 35.6316 14.6644 35.6316 14.6644C35.6316 14.6644 35.6316 14.6644 35.6316 14.6644C35.6316 14.6644 35.6316 14.6644 35.6316 14.6644C35.6316 14.6644 35.6316 14.6644 35.6316 14.6644C35.6316 14.6644 35.6316 14.6644 35.6316 14.6644C35.6316 14.6644 35.6316 14.6644 35.6316 14.6644C35.6316 14.6644 35.6316 14.6644 35.6316 14.6644C35.6316 14.6644 35.6316 14.6644 35.6316 14.6644C35.6316 14.6644 35.6316 14.6644 35.6316 14.6644C35.6316 14.6644 35.6316 14.6644 35.6316 14.6644C35.6316 14.6644 35.6316 14.6644 35.6316 14.6644C35.6316 14.6644 35.6316 14.6644 35.6316 14.6644C35.6316 14.6644 35.6316 14.6644 35.6316 14.6644C35.6316 14.6644 35.6316 14.6644 35.6316 14.6644C35.6316 14.6644 35.6316 14.6644 35.6316 14.6644C35.6316 14.6644 35.6316 14.6644 35.6316 14.6644C35.6316 14.6644 35.6316 14.6644 35.6316 14.6644C35.6316 14.6644 35.6316 14.6644 35.6316 14.6644C35.6316 14.6644 35.6316 14.6644 35.6316 14.6644C35.6316 14.6644 35.6316 14.6644 35.6316 14.6644C35.6316 14.6644 35.6316 14.6644 35.6316 14.6644C35.6316 14.6644 35.6316 14.6644 35.6316 14.6644C35.6316 14.6644 35.6316 14.6644 35.6316 14.6644C35.6316 14.6644 35.6316 14.6644 35.6316 14.6644C35.6316 14.6644 35.6316 14.6644 35.6316 14.6644C35.6316 14.6644 35.6316 14.6644 35.6316 14.6644C35.6316 14.6644 35.6316 14.6644 35.6316 14.6644C35.6316 14.6644 35.6316 14.6644 35.6316 14.6644C35.6316 14.6644 35.6316 14.6644 35.6316 14.6644C35.6316 14.6644 35.6316 14.6644 35.6316 14.6644C35.6316 14.6644 35.6316 14.6644 35.6316 14.6644C35.6316 14.6644 35.6316 14.6644 35.6316 14.6644C35.6316 14.6644 35.6316 14.6644 35.6316 14.6644C35.6316 14.6644 35.6316 14.6644 35.6316 14.6644C35.6316 14.6644 35.6316 14.6644 35.6316 14.6644C35.6316 14.6644 35.6316 14.6644 35.6316 14.6644C35.6316 14.6644 35.6316 14.6644 35.6316 14.6644C35.6316 14.6644 35.6316 14.6644 35.6316 14.6644C35.6316 14.6644 35.6316 14.6644 35.6316 14.6644C35.6316 14.6644 35.6316 14.6644 35.6316 14.6644C35.6316 14.6644 35.6316 14.6644 35.6316 14.6644C35.6316 14.6644 35.6316 14.6644 35.6316 14.6644C35.6316 14.6644 35.6316 14.6644 35.6316 14.6644C35.6316 14.6644 35.6316 14.6644 35.6316 14.6644C35.6316 14.6644 35.6316 14.6644 35.6316 14.6644C35.6316 14.6644 35.6316 14.6644 35.6316 14.6644C35.6316 14.6644 35.6316 14.6644 35.6316 14.6644C35.6316 14.6644 35.6316 14.6644 35.6316 14.6644C35.6316 14.6644 35.6316 14.6644 35.6316 14.6644C35.6316 14.6644 35.6316 14.6644 35.6316 14.6644C35.6316 14.6644 35.6316 14.6644 35.6316 14.6644C35.6316 14.6644 35.6316 14.6644 35.6316 14.6644C35.6316 14.6644 35.6316 14.6644 35.6316 14.6644C35.6316 14.6644 35.6316 14.6644 35.6316 14.6644C35.6316 14.6644 35.6316 14.6644 35.6316 14.6644C35.6316 14.6644 35.6316 14.6644 35.6316 14.6644C35.6316 14.6644 35.6316 14.6644 35.6316 14.6644C35.6316 14.6644 35.6316 14.6644 35.6316 14.6644C35.6316 14.6644 35.6316 14.6644 35.6316 14.6644C35.6316 14.6644 35.6316 14.6644 35.6316 14.6644C35.6316 14.6644 35.6316 14.6644 35.6316 14.6644C35.6316 14.6644 35.6316 14.6644 35.6316 14.6644C35.6316 14.6644 35.6316 14.6644 35.6316 14.6644C35.6316 14.6644 35.6316 14.6644 35.6316 14.6644C35.6316 14.6644 35.6316 14.6644 35.6316 14.6644C35.6316 14.6644 35.6316 14.6644 35.6316 14.6644C35.6316 14.6644 35.6316 14.6644 35.6316 14.6644C35.6316 14.6644 35.6316 14.6644 35.6316 14.6644C35.6316 14.6644 35.6316 14.6644 35.6316 14.6644C35.6316 14.6644 35.6316 14.6644 35.6316 14.6644C35.6316 14.6644 35.6316 14.6644 35.6316 14.6644C35.6316 14.6644 35.6316 14.6644 35.6316 14.6644C35.6316 14.6644 35.6316 14.6644 35.6316 14.6644C35.6316 14.6644 35.6316 14.6644 35.6316 14.6644C35.6316 14.6644 35.6316 14.6644 35.6316 14.6644C35.6316 14.6644 35.6316 14.6644 35.6316 14.6644C35.6316 14.6644 35.6316 14.6644 35.6316 14.6644C35.6316 14.6644 35.6316 14.6644 35.6316 14.6644C35.6316 14.6644 35.6316 14.6644 35.6316 14.6644C35.6316 14.6644 35.6316 14.6644 35.6316 14.6644C35.6316 14.6644 35.6316 14.6644 35.6316 14.6644C35.6316 14.6644 35.6316 14.6644 35.6316 14.6644C35.6316 14.6644 35.6316 14.6644 35.6316 14.6644C35.6316 14.6644 35.6316 14.6644 35.6316 14.6644C35.6316 14.6644 35.6316 14.6644 35.6316 14.6644C35.6316 14.6644 35.6316 14.6644 35.6316 14.6644C35.6316 14.6644 35.6316 14.6644 35.6316 14.6644C35.6316 14.6644 35.6316 14.6644 35.6316 14.6644C35.6316 14.6644 35.6316 14.6644 35.6316 14.6644C35.6316 14.6644 35.6316 14.6644 35.6316 14.6644C35.6316 14.6644 35.6316 14.6644 35.6316 14.6644C35.6316 14.6644 35.6316 14.6644 35.6316 14.6644C35.6316 14.6644 35.6316 14.6644 35.6316 14.6644C35.6316 14.6644 35.6316 14.6644 35.6316 14.6644C35.6316 14.6644 35.6316 14.6644 35.6316 14.6644C35.6316 14.6644 35.6316 14.6644 35.6316 14.6644C35.6316 14.6644 35.6316 14.6644 35.6316 14.6644C35.6316 14.6644 35.6316 14.6644 35.6316 14.6644C35.6316 14.6644 35.6316 14.6644 35.6316 14.6644C35.6316 14.6644 35.6316 14.6644 35.6316 14.6644C35.6316 14.6644 35.6316 14.6644 35.6316 14.6644C35.6316 14.6644 35.6316 14.6644 35.6316 14.6644C35.6316 14.6644 35.6316 14.6644 35.6316 14.6644C35.6316 14.6644 35.6316 14.6644 35.6316 14.6644C35.6316 14.6644 35.6316 14.6644 35.6316 14.6644C35.6316 14.6644 35.6316 14.6644 35.6316 14.6644C35.6316 14.6644 35.6316 14.6644 35.6316 14.6644C35.6316 14.6644 35.6316 14.6644 35.6316 14.6644C35.6316 14.6644 35.6316 14.6644 35.6316 14.6644C35.6316 14.6644 35.6316 14.6644 35.6316 14.6644C35.6316 14.6644 35.6316 14.6644 35.6316 14.6644C35.6316 14.6644 35.6316 14.6644 35.6316 14.6644C35.6316 14.6644 35.6316 14.6644 35.6316 14.6644C35.6316 14.6644 35.6316 14.6644 35.6316 14.6644C35.6316 14.6644 35.6316 14.6644 35.6316 14.6644C35.6316 14.6644 35.6316 14.6644 35.6316 14.6644C35.6316 14.6644 35.6316 14.6644 35.6316 14.6644C35.6316 14.6644 35.6316 14.6644 35.6316 14.6644C35.6316 14.6644 35.6316 14.6644 35.6316 14.6644C35.6316 14.6644 35.6316 14.6644 35.6316 14.6644C35.6316 14.6644 35.6316 14.6644 35.6316 14.6644C35.6316 14.6644 35.6316 14.6644 35.6316 14.6644C35.6316 14.6644 35.6316 14.6644 35.6316 14.6644C35.6316 14.6644 35.6316 14.6644 35.6316 14.6644C35.6316 14.6644 35.6316 14.6644 35.6316 14.6644C35.6316 14.6644 35.6316 14.6644 35.6316 14.6644C35.6316 14.6644 35.6316 14.6644 35.6316 14.6644C35.6316 14.6644 35.6316 14.6644 35.6316 14.6644C35.6316 14.6644 35.6316 14.6644 35.6316 14.6644C35.6316 14.6644 35.6316 14.6644 35.6316 14.6644C35.6316 14.6644 35.6316 14.6644 35.6316 14.6644C35.6316 14.6644 35.6316 14.6644 35.6316 14.6644C35.6316 14.6644 35.6316 14.6644 35.6316 14.6644C35.6316 14.6644 35.6316 14.6644 35.6316 14.6644C35.6316 14.6644 35.6316 14.6644 35.6316 14.6644C35.6316 14.6644 35.6316 14.6644 35.6316 14.6644C35.6316 14.6644 35.6316 14.6644 35.6316 14.6644C35.6316 14.6644 35.6316 14.6644 35.6316 14.6644C35.6316 14.6644 35.6316 14.6644 35.6316 14.6644C35.6316 14.6644 35.6316 14.6644 35.6316 14.6644C35.6316 14.6644 35.6316 14.6644 35.6316 14.6644C35.6316 14.6644 35.6316 14.6644 35.6316 14.6644C35.6316 14.6644 35.6316 14.6644 35.6316 14.6644C35.6316 14.6644 35.6316 14.6644 35.6316 14.6644C35.6316 14.6644 35.6316 14.6644 35.6316 14.6644C35.6316 14.6644 35.6316 14.6644 35.6316 14.6644C35.6316 14.6644 35.6316 14.6644 35.6316 14.6644C35.6316 14.6644 35.6316 14.6644 35.6316 14.6644C35.6316 14.6644 35.6316 14.6644 35.6316 14.6644C35.6316 14.6644 35.6316 14.6644 35.6316 14.6644C35.6316 14.6644 35.6316 14.6644 35.6316 14.6644C35.6316 14.6644 35.6316 14.6644 35.6316 14.6644C35.6316 14.6644 35.6316 14.6644 35.6316 14.6644C35.6316 14.6644 35.6316 14.6644 35.6316 14.6644C35.6316 14.6644 35.6316 14.6644 35.6316 14.6644C35.6316 14.6644 35.6316 14.6644 35.6316 14.6644C35.6316 14.6644 35.6316 14.6644 35.6316 14.6644C35.6316 14.6644 35.6316 14.6644 35.6316 14.6644C35.6316 14.6644 35.6316 14.6644 35.6316 14.6644C35.6316 14.6644 35.6316 14.6644 35.6316 14.6644C35.6316 14.6644 35.6316 14.6644 35.6316 14.6644C35.6316 14.6644 35.6316 14.6644 35.6316 14.6644C35.6316 14.6644 35.6316 14.6644 35.6316 14.6644C35.6316 14.6644 35.6316 14.6644 35.6316 14.6644C35.6316 14.6644 35.6316 14.6644 35.6316 14.6644C35.6316 14.6644 35.6316 14.6644 35.6316 14.6644C35.6316 14.6644 35.6316 14.6644 35.6316 14.6644C35.6316 14.6644 35.6316 14.6644 35.6316 14.6644C35.6316 14.6644 35.6316 14.6644 35.6316 14.6644C35.6316 14.6644 35.6316 14.6644 35.6316 14.6644C35.6316 14.6644 35.6316 14.6644 35.6316 14.6644C35.6316 14.6644 35.6316 14.6644 35.6316 14.6644C35.6316 14.6644 35.6316 14.6644 35.6316 14.6644C35.6316 14.6644 35.6316 14.6644 35.6316 14.6644C35.6316 14.6644 35.6316 14.6644 35.6316 14.6644C35.6316 14.6644 35.6316 14.6644 35.6316 14.6645C35.6316 14.6645 35.6316 14.6645 35.6316 14.6645C35.6316 14.6645 35.6316 14.6645 35.6316 14.6645C35.6316 14.6645 35.6316 14.6645 35.6316 14.6645C35.6316 14.6645 35.6316 14.6645 35.6316 14.6645C35.6316 14.6645 35.6316 14.6645 35.6316 14.6645C35.6316 14.6645 35.6316 14.6645 35.6316 14.6645C35.6316 14.6645 35.6316 14.6645 35.6316 14.6645C35.6316 14.6645 35.6316 14.6645 35.6316 14.6645C35.6316 14.6645 35.6316 14.6645 35.6316 14.6645C35.6316 14.6645 35.6316 14.6645 35.6316 14.6645C35.6316 14.6645 35.6316 14.6645 35.6316 14.6645C35.6316 14.6645 35.6316 14.6645 35.6316 14.6645C35.6316 14.6645 35.6316 14.6645 35.6316 14.6645C35.6316 14.6645 35.6316 14.6645 35.6316 14.6645C35.6316 14.6645 35.6316 14.6645 35.6316 14.6645C35.6316 14.6645 35.6316 14.6645 35.6316 14.6645C35.6316 14.6645 35.6316 14.6645 35.6316 14.6645C35.6316 14.6645 35.6316 14.6645 35.6316 14.6645C35.6316 14.6645 35.6316 14.6645 35.6316 14.6645C35.6316 14.6645 35.6316 14.6645 35.6316 14.6645C35.6316 14.6645 35.6316 14.6645 35.6316 14.6645C35.6316 14.6645 35.6316 14.6645 35.6316 14.6645C35.6316 14.6645 35.6316 14.6645 35.6316 14.6645C35.6316 14.6645 35.6316 14.6645 35.6316 14.6645C35.6316 14.6645 35.6316 14.6645 35.6316 14.6645C35.6316 14.6645 35.6316 14.6645 35.6316 14.6645C35.6316 14.6645 35.6316 14.6645 35.6316 14.6645C35.6316 14.6645 35.6316 14.6645 35.6316 14.6645C35.6316 14.6645 35.6316 14.6645 35.6316 14.6645C35.6316 14.6645 35.6316 14.6645 35.6316 14.6645C35.6316 14.6645 35.6316 14.6645 35.6316 14.6645C35.6316 14.6645 35.6316 14.6645 35.6316 14.6645C35.6316 14.6645 35.6316 14.6645 35.6316 14.6645C35.6316 14.6645 35.6316 14.6645 35.6316 14.6645C35.6316 14.6645 35.6316 14.6645 35.6316 14.6645C35.6316 14.6645 35.6316 14.6645 35.6316 14.6645C35.6316 14.6645 35.6316 14.6645 35.6316 14.6645C35.6316 14.6645 35.6316 14.6645 35.6316 14.6645C35.6316 14.6645 35.6316 14.6645 35.6316 14.6645C35.6316 14.6645 35.6316 14.6645 35.6316 14.6645C35.6316 14.6645 35.6316 14.6645 35.6316 14.6645C35.6316 14.6645 35.6316 14.6645 35.6316 14.6645C35.6316 14.6645 35.6316 14.6645 35.6316 14.6645C35.6316 14.6645 35.6316 14.6645 35.6316 14.6645C35.6316 14.6645 35.6316 14.6645 35.6316 14.6645C35.6316 14.6645 35.6316 14.6645 35.6316 14.6645C35.6316 14.6645 35.6316 14.6645 35.6316 14.6645C35.6316 14.6645 35.6316 14.6645 35.6316 14.6645C35.6316 14.6645 35.6316 14.6645 35.6316 14.6645C35.6316 14.6645 35.6316 14.6645 35.6316 14.6645C35.6316 14.6645 35.6316 14.6645 35.6316 14.6645C35.6316 14.6645 35.6316 14.6645 35.6316 14.6645C35.6316 14.6645 35.6316 14.6645 35.6316 14.6645C35.6316 14.6645 35.6316 14.6645 35.6316 14.6645C35.6316 14.6645 35.6316 14.6645 35.6316 14.6645C35.6316 14.6645 35.6316 14.6645 35.6316 14.6645C35.6316 14.6645 35.6316 14.6645 35.6316 14.6645C35.6316 14.6645 35.6316 14.6645 35.6316 14.6645C35.6316 14.6645 35.6316 14.6645 35.6316 14.6645C35.6316 14.6645 35.6316 14.6645 35.6316 14.6645C35.6316 14.6645 35.6316 14.6645 35.6316 14.6645C35.6316 14.6645 35.6316 14.6645 35.6316 14.6645C35.6316 14.6645 35.6316 14.6645 35.6316 14.6645C35.6316 14.6645 35.6316 14.6645 35.6316 14.6645C35.6316 14.6645 35.6316 14.6645 35.6316 14.6645C35.6316 14.6645 35.6316 14.6645 35.6316 14.6645C35.6316 14.6645 35.6316 14.6645 35.6316 14.6645C35.6316 14.6645 35.6316 14.6645 35.6316 14.6645C35.6316 14.6645 35.6316 14.6645 35.6316 14.6645C35.6316 14.6645 35.6316 14.6645 35.6316 14.6645C35.6316 14.6645 35.6316 14.6645 35.6316 14.6645C35.6316 14.6645 35.6316 14.6645 35.6316 14.6645C35.6316 14.6645 35.6316 14.6645 35.6316 14.6645C35.6316 14.6645 35.6316 14.6645 35.6316 14.6645C35.6316 14.6645 35.6316 14.6645 35.6316 14.6645C35.6316 14.6645 35.6316 14.6645 35.6316 14.6645C35.6316 14.6645 35.6316 14.6645 35.6316 14.6645C35.6316 14.6645 35.6316 14.6645 35.6316 14.6645C35.6316 14.6645 35.6316 14.6645 35.6316 14.6645C35.6316 14.6645 35.6316 14.6645 35.6316 14.6645C35.6316 14.6645 35.6316 14.6645 35.6316 14.6645C35.6316 14.6645 35.6316 14.6645 35.6316 14.6645C35.6316 14.6645 35.6316 14.6645 35.6316 14.6645C35.6316 14.6645 35.6316 14.6645 35.6316 14.6645C35.6316 14.6645 35.6316 14.6645 35.6316 14.6645C35.6316 14.6645 35.6316 14.6645 35.6316 14.6645C35.6316 14.6645 35.6316 14.6645 35.6316 14.6645C35.6316 14.6645 35.6316 14.6645 35.6316 14.6645C35.6316 14.6645 35.6316 14.6645 35.6316 14.6645C35.6316 14.6645 35.6316 14.6645 35.6316 14.6645C35.6316 14.6645 35.6316 14.6645 35.6316 14.6645C35.6316 14.6645 35.6316 14.6645 35.6316 14.6645C35.6316 14.6645 35.6316 14.6645 35.6316 14.6645C35.6316 14.6645 35.6316 14.6645 35.6316 14.6645C35.6316 14.6645 35.6316 14.6645 35.6316 14.6645C35.6316 14.6645 35.6316 14.6645 35.6316 14.6645C35.6316 14.6645 35.6316 14.6645 35.6316 14.6645C35.6316 14.6645 35.6316 14.6645 35.6316 14.6645C35.6316 14.6645 35.6316 14.6645 35.6316 14.6645C35.6316 14.6645 35.6316 14.6645 35.6316 14.6645C35.6316 14.6645 35.6316 14.6645 35.6316 14.6645C35.6316 14.6645 35.6316 14.6645 35.6316 14.6645C35.6316 14.6645 35.6316 14.6645 35.6316 14.6645C35.6316 14.6645 35.6316 14.6645 35.6316 14.6645C35.6316 14.6645 35.6316 14.6645 35.6316 14.6645C35.6316 14.6645 35.6316 14.6645 35.6316 14.6645C35.6316 14.6645 35.6316 14.6645 35.6316 14.6645C35.6316 14.6645 35.6316 14.6645 35.6316 14.6645C35.6316 14.6645 35.6316 14.6645 35.6316 14.6645C35.6316 14.6645 35.6316 14.6645 35.6316 14.6645C35.6316 14.6645 35.6316 14.6645 35.6316 14.6645C35.6316 14.6645 35.6316 14.6645 35.6316 14.6645C35.6316 14.6645 35.6316 14.6645 35.6316 14.6645C35.6316 14.6645 35.6316 14.6645 35.6316 14.6645C35.6316 14.6645 35.6316 14.6645 35.6316 14.6645C35.6316 14.6645 35.6316 14.6645 35.6316 14.6645C35.6316 14.6645 35.6316 14.6645 35.6316 14.6645C35.6316 14.6645 35.6316 14.6645 35.6316 14.6645C35.6316 14.6645 35.6316 14.6645 35.6316 14.6645C35.6316 14.6645 35.6316 14.6645 35.6316 14.6645C35.6316 14.6645 35.6316 14.6645 35.6316 14.6645C35.6316 14.6645 35.6316 14.6645 35.6316 14.6645C35.6316 14.6645 35.6316 14.6645 35.6316 14.6645C35.6316 14.6645 35.6316 14.6645 35.6316 14.6645C35.6316 14.6645 35.6316 14.6645 35.6316 14.6645C35.6316 14.6645 35.6316 14.6645 35.6316 14.6645C35.6316 14.6645 35.6316 14.6645 35.6316 14.6645C35.6316 14.6645 35.6316 14.6645 35.6316 14.6645C35.6316 14.6645 35.6316 14.6645 35.6316 14.6645C35.6316 14.6645 35.6316 14.6645 35.6316 14.6645C35.6316 14.6645 35.6316 14.6645 35.6316 14.6645C35.6316 14.6645 35.6316 14.6645 35.6316 14.6645C35.6316 14.6645 35.6316 14.6645 35.6316 14.6645C35.6316 14.6645 35.6316 14.6645 35.6316 14.6645C35.6316 14.6645 35.6316 14.6645 35.6316 14.6645C35.6316 14.6645 35.6316 14.6645 35.6316 14.6645C35.6316 14.6645 35.6316 14.6645 35.6316 14.6645C35.6316 14.6645 35.6316 14.6645 35.6316 14.6645C35.6316 14.6645 35.6316 14.6645 35.6316 14.6645C35.6316 14.6645 35.6316 14.6645 35.6316 14.6645C35.6316 14.6645 35.6316 14.6645 35.6316 14.6645C35.6316 14.6645 35.6316 14.6645 35.6316 14.6645C35.6316 14.6645 35.6316 14.6645 35.6316 14.6645C35.6316 14.6645 35.6316 14.6645 35.6316 14.6645C35.6316 14.6645 35.6316 14.6645 35.6316 14.6645C35.6316 14.6645 35.6316 14.6645 35.6316 14.6645C35.6316 14.6645 35.6316 14.6645 35.6316 14.6645C35.6316 14.6645 35.6316 14.6645 35.6316 14.6645C35.6316 14.6645 35.6316 14.6645 35.6316 14.6645C35.6316 14.6645 35.6316 14.6645 35.6316 14.6645C35.6316 14.6645 35.6316 14.6645 35.6316 14.6645C35.6316 14.6645 35.6316 14.6645 35.6316 14.6645C35.6316 14.6645 35.6316 14.6645 35.6316 14.6645C35.6316 14.6645 35.6316 14.6645 35.6316 14.6645C35.6316 14.6645 35.6316 14.6645 35.6316 14.6645C35.6316 14.6645 35.6316 14.6645 35.6316 14.6645C35.6316 14.6645 35.6316 14.6645 35.6316 14.6645C35.6316 14.6645 35.6316 14.6645 35.6316 14.6645C35.6316 14.6645 35.6316 14.6645 35.6316 14.6645C35.6316 14.6645 35.6316 14.6645 35.6316 14.6645C35.6316 14.6645 35.6316 14.6645 35.6316 14.6645C35.6316 14.6645 35.6316 14.6645 35.6316 14.6645C35.6316 14.6645 35.6316 14.6645 35.6316 14.6645C35.6316 14.6645 35.6316 14.6645 35.6316 14.6645C35.6316 14.6645 35.6316 14.6645 35.6316 14.6645C35.6316 14.6645 35.6316 14.6645 35.6316 14.6645C35.6316 14.6645 35.6316 14.6645 35.6316 14.6645C35.6316 14.6645 35.6316 14.6645 35.6316 14.6645C35.6316 14.6645 35.6316 14.6645 35.6316 14.6645C35.6316 14.6645 35.6316 14.6645 35.6316 14.6645C35.6316 14.6645 35.6316 14.6645 35.6316 14.6645C35.6316 14.6645 35.6316 14.6645 35.6316 14.6645C35.6316 14.6645 35.6316 14.6645 35.6316 14.6645C35.6316 14.6645 35.6316 14.6645 35.6316 14.6645C35.6316 14.6645 35.6316 14.6645 35.6316 14.6645C35.6316 14.6645 35.6316 14.6645 35.6316 14.6645C35.6316 14.6645 35.6316 14.6645 35.6316 14.6645C35.6316 14.6645 35.6316 14.6645 35.6316 14.6645C35.6316 14.6645 35.6316 14.6645 35.6316 14.6645C35.6316 14.6645 35.6316 14.6645 35.6316 14.6645C35.6316 14.6645 35.6316 14.6645 35.6316 14.6645C35.6316 14.6645 35.6316 14.6645 35.6316 14.6645C35.6316 14.6645 35.6316 14.6645 35.6316 14.6645C35.6316 14.6645 35.6316 14.6645 35.6316 14.6645C35.6316 14.6645 35.6316 14.6645 35.6316 14.6645C35.6316 14.6645 35.6316 14.6645 35.6316 14.6645C35.6316 14.6645 35.6316 14.6645 35.6316 14.6645C35.6316 14.6645 35.6316 14.6645 35.6316 14.6645C35.6316 14.6645 35.6316 14.6645 35.6316 14.6645C35.6316 14.6645 35.6316 14.6645 35.6316 14.6645C35.6316 14.6645 35.6316 14.6645 35.6316 14.6645C35.6316 14.6645 35.6316 14.6645 35.6316 14.6645C35.6316 14.6645 35.6316 14.6645 35.6316 14.6645C35.6316 14.6645 35.6316 14.6645 35.6316 14.6645C35.6316 14.6645 35.6316 14.6645 35.6316 14.6645C35.6316 14.6645 35.6316 14.6645 35.6316 14.6645C35.6316 14.6645 35.6316 14.6645 35.6316 14.6645C35.6316 14.6645 35.6316 14.6645 35.6316 14.6645C35.6316 14.6645 35.6316 14.6645 35.6316 14.6645C35.6316 14.6645 35.6316 14.6645 35.6316 14.6645C35.6316 14.6645 35.6316 14.6645 35.6316 14.6645C35.6316 14.6645 35.6316 14.6645 35.6316 14.6645C35.6316 14.6645 35.6316 14.6645 35.6316 14.6645C35.6316 14.6645 35.6316 14.6645 35.6316 14.6645C35.6316 14.6645 35.6316 14.6645 35.6316 14.6645C35.6316 14.6645 35.6316 14.6645 35.6316 14.6645C35.6316 14.6645 35.6316 14.6645 35.6316 14.6645C35.6316 14.6645 35.6316 14.6645 35.6316 14.6645C35.6316 14.6645 35.6316 14.6645 35.6316 14.6645C35.6316 14.6645 35.6316 14.6645 35.6316 14.6645C35.6316 14.6645 35.6316 14.6645 35.6316 14.6645C35.6316 14.6645 35.6316 14.6645 35.6316 14.6645C35.6316 14.6645 35.6316 14.6645 35.6316 14.6645C35.6316 14.6645 35.6316 14.6645 35.6316 14.6645C35.6316 14.6645 35.6316 14.6645 35.6316 14.6645C35.6316 14.6645 35.6316 14.6645 35.6316 14.6645C35.6316 14.6645 35.6316 14.6645 35.6316 14.6645C35.6316 14.6645 35.6316 14.6645 35.6316 14.6645C35.6316 14.6645 35.6316 14.6645 35.6316 14.6645C35.6316 14.6645 35.6316 14.6645 35.6316 14.6645C35.6316 14.6645 35.6316 14.6645 35.6316 14.6645C35.6316 14.6645 35.6316 14.6645 35.6316 14.6645C35.6316 14.6645 35.6316 14.6645 35.6316 14.6645C35.6316 14.6645 35.6316 14.6645 35.6316 14.6645L38.3174 13.3279C38.3174 13.3279 38.3174 13.3279 38.3174 13.3279C38.3174 13.3279 38.3174 13.3279 38.3174 13.3279C38.3174 13.3279 38.3174 13.3279 38.3174 13.3279C38.3174 13.3279 38.3174 13.3279 38.3174 13.3279C38.3174 13.3279 38.3174 13.3279 38.3174 13.3279C38.3174 13.3279 38.3174 13.3279 38.3174 13.3279C38.3174 13.3279 38.3174 13.3279 38.3174 13.3279C38.3174 13.3279 38.3174 13.3279 38.3174 13.3279C38.3174 13.3279 38.3174 13.3279 38.3174 13.3279C38.3174 13.3279 38.3174 13.3279 38.3174 13.3279C38.3174 13.3279 38.3174 13.3279 38.3174 13.3279C38.3174 13.3279 38.3174 13.3279 38.3174 13.3279C38.3174 13.3279 38.3174 13.3279 38.3174 13.3279C38.3174 13.3279 38.3174 13.3279 38.3174 13.3279C38.3174 13.3279 38.3174 13.3279 38.3174 13.3279C38.3174 13.3279 38.3174 13.3279 38.3174 13.3279C38.3174 13.3279 38.3174 13.3279 38.3174 13.3279C38.3174 13.3279 38.3174 13.3279 38.3174 13.3279C38.3174 13.3279 38.3174 13.3279 38.3174 13.3279C38.3174 13.3279 38.3174 13.3279 38.3174 13.3279C38.3174 13.3279 38.3174 13.3279 38.3174 13.3279C38.3174 13.3279 38.3174 13.3279 38.3174 13.3279C38.3174 13.3279 38.3174 13.3279 38.3174 13.3279C38.3174 13.3279 38.3174 13.3279 38.3174 13.3279C38.3174 13.3279 38.3174 13.3279 38.3174 13.3279C38.3174 13.3279 38.3174 13.3279 38.3174 13.3279C38.3174 13.3279 38.3174 13.3279 38.3174 13.3279C38.3174 13.3279 38.3174 13.3279 38.3174 13.3279C38.3174 13.3279 38.3174 13.3279 38.3174 13.3279C38.3174 13.3279 38.3174 13.3279 38.3174 13.3279C38.3174 13.3279 38.3174 13.3279 38.3174 13.3279C38.3174 13.3279 38.3174 13.3279 38.3174 13.3279C38.3174 13.3279 38.3174 13.3279 38.3174 13.3279C38.3174 13.3279 38.3174 13.3279 38.3174 13.3279C38.3174 13.3279 38.3174 13.3279 38.3174 13.3279C38.3174 13.3279 38.3174 13.3279 38.3174 13.3279C38.3174 13.3279 38.3174 13.3279 38.3174 13.3279C38.3174 13.3279 38.3174 13.3279 38.3174 13.3279C38.3174 13.3279 38.3174 13.3279 38.3174 13.3279C38.3174 13.3279 38.3174 13.3279 38.3174 13.3279C38.3174 13.3279 38.3174 13.3279 38.3174 13.3279C38.3174 13.3279 38.3174 13.3279 38.3174 13.3279C38.3174 13.3279 38.3174 13.3279 38.3174 13.3279C38.3174 13.3279 38.3174 13.3279 38.3174 13.3279C38.3174 13.3279 38.3174 13.3279 38.3174 13.3279C38.3174 13.3279 38.3174 13.3279 38.3174 13.3279C38.3174 13.3279 38.3174 13.3279 38.3174 13.3279C38.3174 13.3279 38.3174 13.3279 38.3174 13.3279C38.3174 13.3279 38.3174 13.3279 38.3174 13.3279C38.3174 13.3279 38.3174 13.3279 38.3174 13.3279C38.3174 13.3279 38.3174 13.3279 38.3174 13.3279C38.3174 13.3279 38.3174 13.3279 38.3174 13.3279C38.3174 13.3279 38.3174 13.3279 38.3174 13.3279C38.3174 13.3279 38.3174 13.3279 38.3174 13.3279C38.3174 13.3279 38.3174 13.3279 38.3174 13.3279C38.3174 13.3279 38.3174 13.3279 38.3174 13.3279C38.3174 13.3279 38.3174 13.3279 38.3174 13.3279C38.3174 13.3279 38.3174 13.3279 38.3174 13.3279C38.3174 13.3279 38.3174 13.3279 38.3174 13.3279C38.3174 13.3279 38.3174 13.3279 38.3174 13.3279C38.3174 13.3279 38.3174 13.3279 38.3174 13.3279C38.3174 13.3279 38.3174 13.3279 38.3174 13.3279C38.3174 13.3279 38.3174 13.3279 38.3174 13.3279C38.3174 13.3279 38.3174 13.3279 38.3174 13.3279C38.3174 13.3279 38.3174 13.3279 38.3174 13.3279C38.3174 13.3279 38.3174 13.3279 38.3174 13.3279C38.3174 13.3279 38.3174 13.3279 38.3174 13.3279C38.3174 13.3279 38.3174 13.3279 38.3174 13.3279C38.3174 13.3279 38.3174 13.3279 38.3174 13.3279C38.3174 13.3279 38.3174 13.3279 38.3174 13.3279C38.3174 13.3279 38.3174 13.3279 38.3174 13.3279C38.3174 13.3279 38.3174 13.3279 38.3174 13.3279C38.3174 13.3279 38.3174 13.3279 38.3174 13.3279C38.3174 13.3279 38.3174 13.3279 38.3174 13.3279C38.3174 13.3279 38.3174 13.3279 38.3174 13.3279C38.3174 13.3279 38.3174 13.3279 38.3174 13.3279C38.3174 13.3279 38.3174 13.3279 38.3174 13.3279C38.3174 13.3279 38.3174 13.3279 38.3174 13.3279C38.3174 13.3279 38.3174 13.3279 38.3174 13.3279C38.3174 13.3279 38.3174 13.3279 38.3174 13.3279C38.3174 13.3279 38.3174 13.3279 38.3174 13.3279C38.3174 13.3279 38.3174 13.3279 38.3174 13.3279C38.3174 13.3279 38.3174 13.3279 38.3174 13.3279C38.3174 13.3279 38.3174 13.3279 38.3174 13.3279C38.3174 13.3279 38.3174 13.3279 38.3174 13.3279C38.3174 13.3279 38.3174 13.3279 38.3174 13.3279C38.3174 13.3279 38.3174 13.3279 38.3174 13.3279C38.3174 13.3279 38.3174 13.3279 38.3174 13.3279C38.3174 13.3279 38.3174 13.3279 38.3174 13.3279C38.3174 13.3279 38.3174 13.3279 38.3174 13.3279C38.3174 13.3279 38.3174 13.3279 38.3174 13.3279C38.3174 13.3279 38.3174 13.3279 38.3174 13.3279C38.3174 13.3279 38.3174 13.3279 38.3174 13.3279C38.3174 13.3279 38.3174 13.3279 38.3174 13.3279C38.3174 13.3279 38.3174 13.3279 38.3174 13.3279C38.3174 13.3279 38.3174 13.3279 38.3174 13.3279C38.3174 13.3279 38.3174 13.3279 38.3174 13.3279C38.3174 13.3279 38.3174 13.3279 38.3174 13.3279C38.3174 13.3279 38.3174 13.3279 38.3174 13.3279C38.3174 13.3279 38.3174 13.3279 38.3174 13.3279C38.3174 13.3279 38.3174 13.3279 38.3174 13.3279C38.3174 13.3279 38.3174 13.3279 38.3174 13.3279C38.3174 13.3279 38.3174 13.3279 38.3174 13.3279C38.3174 13.3279 38.3174 13.3279 38.3174 13.3279C38.3174 13.3279 38.3174 13.3279 38.3174 13.3279C38.3174 13.3279 38.3174 13.3279 38.3174 13.3279C38.3174 13.3279 38.3174 13.3279 38.3174 13.3279C38.3174 13.3279 38.3174 13.3279 38.3174 13.3279C38.3174 13.3279 38.3174 13.3279 38.3174 13.3279C38.3174 13.3279 38.3174 13.3279 38.3174 13.3279C38.3174 13.3279 38.3174 13.3279 38.3174 13.3279C38.3174 13.3279 38.3174 13.3279 38.3174 13.3279C38.3174 13.3279 38.3174 13.3279 38.3174 13.3279C38.3174 13.3279 38.3174 13.3279 38.3174 13.3279C38.3174 13.3279 38.3174 13.3279 38.3174 13.3279C38.3174 13.3279 38.3174 13.3279 38.3174 13.3279C38.3174 13.3279 38.3174 13.3279 38.3174 13.3279C38.3174 13.3279 38.3174 13.3279 38.3174 13.3279C38.3174 13.3279 38.3174 13.3279 38.3174 13.3279C38.3174 13.3279 38.3174 13.3279 38.3174 13.3279C38.3174 13.3279 38.3174 13.3279 38.3174 13.3279C38.3174 13.3279 38.3174 13.3279 38.3174 13.3279C38.3174 13.3279 38.3174 13.3279 38.3174 13.3279C38.3174 13.3279 38.3174 13.3279 38.3174 13.3279C38.3174 13.3279 38.3174 13.3279 38.3174 13.3279C38.3174 13.3279 38.3174 13.3279 38.3174 13.3279C38.3174 13.3279 38.3174 13.3279 38.3174 13.3279C38.3174 13.3279 38.3174 13.3279 38.3174 13.3279C38.3174 13.3279 38.3174 13.3279 38.3174 13.3279C38.3174 13.3279 38.3174 13.3279 38.3174 13.3279C38.3174 13.3279 38.3174 13.3279 38.3174 13.3279C38.3174 13.3279 38.3174 13.3279 38.3174 13.3279C38.3174 13.3279 38.3174 13.3279 38.3174 13.3279C38.3174 13.3279 38.3174 13.3279 38.3174 13.3279C38.3174 13.3279 38.3174 13.3279 38.3174 13.3279C38.3174 13.3279 38.3174 13.3279 38.3174 13.3279C38.3174 13.3279 38.3174 13.3279 38.3174 13.3279C38.3174 13.3279 38.3174 13.3279 38.3174 13.3279C38.3174 13.3279 38.3174 13.3279 38.3174 13.3279C38.3174 13.3279 38.3174 13.3279 38.3174 13.3279C38.3174 13.3279 38.3174 13.3279 38.3174 13.3279C38.3174 13.3279 38.3174 13.3279 38.3174 13.3279C38.3174 13.3279 38.3174 13.3279 38.3174 13.3279C38.3174 13.3279 38.3174 13.3279 38.3174 13.3279C38.3174 13.3279 38.3174 13.3279 38.3174 13.3279C38.3174 13.3279 38.3174 13.3279 38.3174 13.3279C38.3174 13.3279 38.3174 13.3279 38.3174 13.3279C38.3174 13.3279 38.3174 13.3279 38.3174 13.3279C38.3174 13.3279 38.3174 13.3279 38.3174 13.3279C38.3174 13.3279 38.3174 13.3279 38.3174 13.3279C38.3174 13.3279 38.3174 13.3279 38.3174 13.3279C38.3174 13.3279 38.3174 13.3279 38.3174 13.3279C38.3174 13.3279 38.3174 13.3279 38.3174 13.3279C38.3174 13.3279 38.3174 13.3279 38.3174 13.3279C38.3174 13.3279 38.3174 13.3279 38.3174 13.3279C38.3174 13.3279 38.3174 13.3279 38.3174 13.3279C38.3174 13.3279 38.3174 13.3279 38.3174 13.3279C38.3174 13.3279 38.3174 13.3279 38.3174 13.3279C38.3174 13.3279 38.3174 13.3279 38.3174 13.3279C38.3174 13.3279 38.3174 13.3279 38.3174 13.3279C38.3174 13.3279 38.3174 13.3279 38.3174 13.3279C38.3174 13.3279 38.3174 13.3279 38.3174 13.3279C38.3174 13.3279 38.3174 13.3279 38.3174 13.3279C38.3174 13.3279 38.3174 13.3279 38.3174 13.3279C38.3174 13.3279 38.3174 13.3279 38.3174 13.3279C38.3174 13.3279 38.3174 13.3279 38.3174 13.3279C38.3174 13.3279 38.3174 13.3279 38.3174 13.3279C38.3174 13.3279 38.3174 13.3279 38.3174 13.3279C38.3174 13.3279 38.3174 13.3279 38.3174 13.3279C38.3174 13.3279 38.3174 13.3279 38.3174 13.3279C38.3174 13.3279 38.3174 13.3279 38.3174 13.3279C38.3174 13.3279 38.3174 13.3279 38.3174 13.3279C38.3174 13.3279 38.3174 13.3279 38.3174 13.3279C38.3174 13.3279 38.3174 13.3279 38.3174 13.3279C38.3174 13.3279 38.3174 13.3279 38.3174 13.3279C38.3174 13.3279 38.3174 13.3279 38.3174 13.3279C38.3174 13.3279 38.3174 13.3279 38.3174 13.3279C38.3174 13.3279 38.3174 13.3279 38.3174 13.3279C38.3174 13.3279 38.3174 13.3279 38.3174 13.3279C38.3174 13.3279 38.3174 13.3279 38.3174 13.3279C38.3174 13.3279 38.3174 13.3279 38.3174 13.3279C38.3174 13.3279 38.3174 13.3279 38.3174 13.3279C38.3174 13.3279 38.3174 13.3279 38.3174 13.3279C38.3174 13.3279 38.3174 13.3279 38.3174 13.3279C38.3174 13.3279 38.3174 13.3279 38.3174 13.3279C38.3174 13.3279 38.3174 13.3279 38.3174 13.3279C38.3174 13.3279 38.3174 13.3279 38.3174 13.3279C38.3174 13.3279 38.3174 13.3279 38.3174 13.3279C38.3174 13.3279 38.3174 13.3279 38.3174 13.3279C38.3174 13.3279 38.3174 13.3279 38.3174 13.3279C38.3174 13.3279 38.3174 13.3279 38.3174 13.3279C38.3174 13.3279 38.3174 13.3279 38.3174 13.3279C38.3174 13.3279 38.3174 13.3279 38.3174 13.3279C38.3174 13.3279 38.3174 13.3279 38.3174 13.3279C38.3174 13.3279 38.3174 13.3279 38.3174 13.3279C38.3174 13.3279 38.3174 13.3279 38.3174 13.3279C38.3174 13.3279 38.3174 13.3279 38.3174 13.3279C38.3174 13.3279 38.3174 13.3279 38.3174 13.3279C38.3174 13.3279 38.3174 13.3279 38.3174 13.3279C38.3174 13.3279 38.3174 13.3279 38.3174 13.3279C38.3174 13.3279 38.3174 13.3279 38.3174 13.3279C38.3174 13.3279 38.3174 13.3279 38.3174 13.3279C38.3174 13.3279 38.3174 13.3279 38.3174 13.3279C38.3174 13.3279 38.3174 13.3279 38.3174 13.3279C38.3174 13.3279 38.3174 13.3279 38.3174 13.3279C38.3174 13.3279 38.3174 13.3279 38.3174 13.3279C38.3174 13.3279 38.3174 13.3279 38.3174 13.3279C38.3174 13.3279 38.3174 13.3279 38.3174 13.3279C38.3174 13.3279 38.3174 13.3279 38.3174 13.3279C38.3174 13.3279 38.3174 13.3279 38.3174 13.3279C38.3174 13.3279 38.3174 13.3279 38.3174 13.3279C38.3174 13.3279 38.3174 13.3279 38.3174 13.3279C38.3174 13.3279 38.3174 13.3279 38.3174 13.3279C38.3174 13.3279 38.3174 13.3279 38.3174 13.3279C38.3174 13.3279 38.3174 13.3279 38.3174 13.3279C38.3174 13.3279 38.3174 13.3279 38.3174 13.3279C38.3174 13.3279 38.3174 13.3279 38.3174 13.3279C38.3174 13.3279 38.3174 13.3279 38.3174 13.3279C38.3174 13.3279 38.3174 13.3279 38.3174 13.3279C38.3174 13.3279 38.3174 13.3279 38.3174 13.3279C38.3174 13.3279 38.3174 13.3279 38.3174 13.3279C38.3174 13.3279 38.3174 13.3279 38.3174 13.3279C38.3174 13.3279 38.3174 13.3279 38.3174 13.3279C38.3174 13.3279 38.3174 13.3279 38.3174 13.3279C38.3174 13.3279 38.3174 13.3279 38.3174 13.3279C38.3174 13.3279 38.3174 13.3279 38.3174 13.3279C38.3174 13.3279 38.3174 13.3279 38.3174 13.3279C38.3174 13.3279 38.3174 13.3279 38.3174 13.3279C38.3174 13.3279 38.3174 13.3279 38.3174 13.3279C38.3174 13.3279 38.3174 13.3279 38.3174 13.3279C38.3174 13.3279 38.3174 13.3279 38.3174 13.3279C38.3174 13.3279 38.3174 13.3279 38.3174 13.3279C38.3174 13.3279 38.3174 13.3279 38.3174 13.3279C38.3174 13.3279 38.3174 13.3279 38.3174 13.3279C38.3174 13.3279 38.3174 13.3279 38.3174 13.3279C38.3174 13.3279 38.3174 13.3279 38.3174 13.3279C38.3174 13.3279 38.3174 13.3279 38.3174 13.3279C38.3174 13.3279 38.3174 13.3279 38.3174 13.3279C38.3174 13.3279 38.3174 13.3279 38.3174 13.3279C38.3174 13.3279 38.3174 13.3279 38.3174 13.3279C38.3174 13.3279 38.3174 13.3279 38.3174 13.3279C38.3174 13.3279 38.3174 13.3279 38.3174 13.3279C38.3174 13.3279 38.3174 13.3279 38.3174 13.3279C38.3174 13.3279 38.3174 13.3279 38.3174 13.3279C38.3174 13.3279 38.3174 13.3279 38.3174 13.3279C38.3174 13.3279 38.3174 13.3279 38.3174 13.3279C38.3174 13.3279 38.3174 13.3279 38.3174 13.3279C38.3174 13.3279 38.3174 13.3279 38.3174 13.3279C38.3174 13.3279 38.3174 13.3279 38.3174 13.3279C38.3174 13.3279 38.3174 13.3279 38.3174 13.3279C38.3174 13.3279 38.3174 13.3279 38.3174 13.3279C38.3174 13.3279 38.3174 13.3279 38.3174 13.3279C38.3174 13.3279 38.3174 13.3279 38.3174 13.3279C38.3174 13.3279 38.3174 13.3279 38.3174 13.3279C38.3174 13.3279 38.3174 13.3279 38.3174 13.3279C38.3174 13.3279 38.3174 13.3279 38.3174 13.3279C38.3174 13.3279 38.3174 13.3279 38.3174 13.3279C38.3174 13.3279 38.3174 13.3279 38.3174 13.3279C38.3174 13.3279 38.3174 13.3279 38.3174 13.3279C38.3174 13.3279 38.3174 13.3279 38.3174 13.3279C38.3174 13.3279 38.3174 13.3279 38.3174 13.3279C38.3174 13.3279 38.3174 13.3279 38.3174 13.3279C38.3174 13.3279 38.3174 13.3279 38.3174 13.3279C38.3174 13.3279 38.3174 13.3279 38.3174 13.3279C38.3174 13.3279 38.3174 13.3279 38.3174 13.3279C38.3174 13.3279 38.3174 13.3279 38.3174 13.3279C38.3174 13.3279 38.3174 13.3279 38.3174 13.3279C38.3174 13.3279 38.3174 13.3279 38.3174 13.3279C38.3174 13.3279 38.3174 13.3279 38.3174 13.3279C38.3174 13.3279 38.3174 13.3279 38.3174 13.3279C38.3174 13.3279 38.3174 13.3279 38.3174 13.3279C38.3174 13.3279 38.3174 13.3279 38.3174 13.3279C38.3174 13.3279 38.3174 13.3279 38.3174 13.3279C38.3174 13.3279 38.3174 13.3279 38.3174 13.3279C38.3174 13.3279 38.3174 13.3279 38.3174 13.3279C38.3174 13.3279 38.3174 13.3279 38.3174 13.3279C38.3174 13.3279 38.3174 13.3279 38.3174 13.3279C38.3174 13.3279 38.3174 13.3279 38.3174 13.3279C38.3174 13.3279 38.3174 13.3279 38.3174 13.3279C38.3174 13.3279 38.3174 13.3279 38.3174 13.3279C38.3174 13.3279 38.3174 13.3279 38.3174 13.3279C38.3174 13.3279 38.3174 13.3279 38.3174 13.3279C38.3174 13.3279 38.3174 13.3279 38.3174 13.3279C38.3174 13.3279 38.3174 13.3279 38.3174 13.3279C38.3174 13.3279 38.3174 13.3279 38.3174 13.3279C38.3174 13.3279 38.3174 13.3279 38.3174 13.3279C38.3174 13.3279 38.3174 13.3279 38.3174 13.3279C38.3174 13.3279 38.3174 13.3279 38.3174 13.3279C38.3174 13.3279 38.3174 13.3279 38.3174 13.3279C38.3174 13.3279 38.3174 13.3279 38.3174 13.3279C38.3174 13.3279 38.3174 13.3279 38.3174 13.3279C38.3174 13.3279 38.3174 13.3279 38.3174 13.3279C38.3174 13.3279 38.3174 13.3279 38.3174 13.3279C38.3174 13.3279 38.3174 13.3279 38.3174 13.3279C38.3174 13.3279 38.3174 13.3279 38.3174 13.3279C38.3174 13.3279 38.3174 13.3279 38.3174 13.3279C38.3174 13.3279 38.3174 13.3279 38.3174 13.3279C38.3174 13.3279 38.3174 13.3279 38.3174 13.3279C38.3174 13.3279 38.3174 13.3279 38.3174 13.3279C38.3174 13.3279 38.3174 13.3279 38.3174 13.3279C38.3174 13.3279 38.3174 13.3279 38.3174 13.3279C38.3174 13.3279 38.3174 13.3279 38.3174 13.3279C38.3174 13.3279 38.3174 13.3279 38.3174 13.3279C38.3174 13.3279 38.3174 13.3279 38.3174 13.3279C38.3174 13.3279 38.3174 13.3279 38.3174 13.3279C38.3174 13.3279 38.3174 13.3279 38.3174 13.3279C38.3174 13.3279 38.3174 13.3279 38.3174 13.3279C38.3174 13.3279 38.3174 13.3279 38.3174 13.3279C38.3174 13.3279 38.3174 13.3279 38.3174 13.3279C38.3174 13.3279 38.3174 13.3279 38.3174 13.3279C38.3174 13.3279 38.3174 13.3279 38.3174 13.3279C38.3174 13.3279 38.3174 13.3279 38.3174 13.3279C38.3174 13.3279 38.3174 13.3279 38.3174 13.3279C38.3174 13.3279 38.3174 13.3279 38.3174 13.3279C38.3174 13.3279 38.3174 13.3279 38.3174 13.3279C38.3174 13.3279 38.3174 13.3279 38.3174 13.3279C38.3174 13.3279 38.3174 13.3279 38.3174 13.3279C38.3174 13.3279 38.3174 13.3279 38.3174 13.3279C38.3174 13.3279 38.3174 13.3279 38.3174 13.3279C38.3174 13.3279 38.3174 13.3279 38.3174 13.3279C38.3174 13.3279 38.3174 13.3279 38.3174 13.3279C38.3174 13.3279 38.3174 13.3279 38.3174 13.3279C38.3174 13.3279 38.3174 13.3279 38.3174 13.3279C38.3174 13.3279 38.3174 13.3279 38.3174 13.3279C38.3174 13.3279 38.3174 13.3279 38.3174 13.3279C38.3174 13.3279 38.3174 13.3279 38.3174 13.3279C38.3174 13.3279 38.3174 13.3279 38.3174 13.3279C38.3174 13.3279 38.3174 13.3279 38.3174 13.3279C38.3174 13.3279 38.3174 13.3279 38.3174 13.3279C38.3174 13.3279 38.3174 13.3279 38.3174 13.3279C38.3174 13.3279 38.3174 13.3279 38.3174 13.3279C38.3174 13.3279 38.3174 13.3279 38.3174 13.3279C38.3174 13.3279 38.3174 13.3279 38.3174 13.3279C38.3174 13.3279 38.3174 13.3279 38.3174 13.3279C38.3174 13.3279 38.3174 13.3279 38.3174 13.3279C38.3174 13.3279 38.3174 13.3279 38.3174 13.3279C38.3174 13.3279 38.3174 13.3279 38.3174 13.3279C38.3174 13.3279 38.3174 13.3279 38.3174 13.3279C38.3174 13.3279 38.3174 13.3279 38.3174 13.3279C38.3174 13.3279 38.3174 13.3279 38.3174 13.3279C38.3174 13.3279 38.3174 13.3279 38.3174 13.3279C38.3174 13.3279 38.3174 13.3279 38.3174 13.3279C38.3174 13.3279 38.3174 13.3279 38.3174 13.3279C38.3174 13.3279 38.3174 13.3279 38.3174 13.3279C38.3174 13.3279 38.3174 13.3279 38.3174 13.3279C38.3174 13.3279 38.3174 13.3279 38.3174 13.3279C38.3174 13.3279 38.3174 13.3279 38.3174 13.3279C38.3174 13.3279 38.3174 13.3279 38.3174 13.3279C38.3174 13.3279 38.3174 13.3279 38.3174 13.3279C38.3174 13.3279 38.3174 13.3279 38.3174 13.3279C38.3174 13.3279 38.3174 13.3279 38.3174 13.3279C38.3174 13.3279 38.3174 13.3279 38.3174 13.3279C38.3174 13.3279 38.3174 13.3279 38.3174 13.3279C38.3174 13.3279 38.3174 13.3279 38.3174 13.3279C38.3174 13.3279 38.3174 13.3279 38.3174 13.3279C38.3174 13.3279 38.3174 13.3279 38.3174 13.3279C38.3174 13.3279 38.3174 13.3279 38.3174 13.3279C38.3174 13.3279 38.3174 13.3279 38.3174 13.3279C38.3174 13.3279 38.3174 13.3279 38.3174 13.3279C38.3174 13.3279 38.3174 13.3279 38.3174 13.3279C38.3174 13.3279 38.3174 13.3279 38.3174 13.3279C38.3174 13.3279 38.3174 13.3279 38.3174 13.3279C38.3174 13.3279 38.3174 13.3279 38.3174 13.3279C38.3174 13.3279 38.3174 13.3279 38.3174 13.3279C38.3174 13.3279 38.3174 13.3279 38.3174 13.3279C38.3174 13.3279 38.3174 13.3279 38.3174 13.3279C38.3174 13.3279 38.3174 13.3279 38.3174 13.3279C38.3174 13.3279 38.3174 13.3279 38.3174 13.3279C38.3174 13.3279 38.3174 13.3279 38.3174 13.3279C38.3174 13.3279 38.3174 13.3279 38.3174 13.3279C38.3174 13.3279 38.3174 13.3279 38.3174 13.3279C38.3174 13.3279 38.3174 13.3279 38.3174 13.3279C38.3174 13.3279 38.3174 13.3279 38.3174 13.3279C38.3174 13.3279 38.3174 13.3279 38.3174 13.3279C38.3174 13.3279 38.3174 13.3279 38.3174 13.3279C38.3174 13.3279 38.3174 13.3279 38.3174 13.3279C38.3174 13.3279 38.3174 13.3279 38.3174 13.3279C38.3174 13.3279 38.3174 13.3279 38.3174 13.3279C38.3174 13.3279 38.3174 13.3279 38.3174 13.3279C38.3174 13.3279 38.3174 13.3279 38.3174 13.3279C38.3174 13.3279 38.3174 13.3279 38.3174 13.3279C38.3174 13.3279 38.3174 13.3279 38.3174 13.3279C38.3174 13.3279 38.3174 13.3279 38.3174 13.3279C38.3174 13.3279 38.3174 13.3279 38.3174 13.3279C38.3174 13.3279 38.3174 13.3279 38.3174 13.3279C38.3174 13.3279 38.3174 13.3279 38.3174 13.3279C38.3174 13.3279 38.3174 13.3279 38.3174 13.3279C38.3174 13.3279 38.3174 13.3279 38.3174 13.3279C38.3174 13.3279 38.3174 13.3279 38.3174 13.3279C38.3174 13.3279 38.3174 13.3279 38.3174 13.3279C38.3174 13.3279 38.3174 13.3279 38.3174 13.3279C38.3174 13.3279 38.3174 13.3279 38.3174 13.3279C38.3174 13.3279 38.3174 13.3279 38.3174 13.3279C38.3174 13.3279 38.3174 13.3279 38.3174 13.3279C38.3174 13.3279 38.3174 13.3279 38.3174 13.3279C38.3174 13.3279 38.3174 13.3279 38.3174 13.3279C38.3174 13.3279 38.3174 13.3279 38.3174 13.3279C38.3174 13.3279 38.3174 13.3279 38.3174 13.3279C38.3174 13.3279 38.3174 13.3279 38.3174 13.3279C38.3174 13.3279 38.3174 13.3279 38.3174 13.3279C38.3174 13.3279 38.3174 13.3279 38.3174 13.3279C38.3174 13.3279 38.3174 13.3279 38.3174 13.3279C38.3174 13.3279 38.3174 13.3279 38.3174 13.3279C38.3174 13.3279 38.3174 13.3279 38.3174 13.3279C38.3174 13.3279 38.3174 13.3279 38.3174 13.3279C38.3174 13.3279 38.3174 13.3279 38.3174 13.3279C38.3174 13.3279 38.3174 13.3279 38.3174 13.3279C38.3174 13.3279 38.3174 13.3279 38.3174 13.3279C38.3174 13.3279 38.3174 13.3279 38.3174 13.3279C38.3174 13.3279 38.3174 13.3279 38.3174 13.3279C38.3174 13.3279 38.3174 13.3279 38.3174 13.3279C38.3174 13.3279 38.3174 13.3279 38.3174 13.3279C38.3174 13.3279 38.3174 13.3279 38.3174 13.3279C38.3174 13.3279 38.3174 13.3279 38.3174 13.3279C38.3174 13.3279 38.3174 13.3279 38.3174 13.3279C38.3174 13.3279 38.3174 13.3279 38.3174 13.3279C38.3174 13.3279 38.3174 13.3279 38.3174 13.3279C38.3174 13.3279 38.3174 13.3279 38.3174 13.3279C38.3174 13.3279 38.3174 13.3279 38.3174 13.3279C38.3174 13.3279 38.3174 13.3279 38.3174 13.3279C38.3174 13.3279 38.3174 13.3279 38.3174 13.3279C38.3174 13.3279 38.3174 13.3279 38.3174 13.3279C38.3174 13.3279 38.3174 13.3279 38.3174 13.3279C38.3174 13.3279 38.3174 13.3279 38.3174 13.3279C38.3174 13.3279 38.3174 13.3279 38.3174 13.3279C38.3174 13.3279 38.3174 13.3279 38.3174 13.3279C38.3174 13.3279 38.3174 13.3279 38.3174 13.3279C38.3174 13.3279 38.3174 13.3279 38.3174 13.3279C38.3174 13.3279 38.3174 13.3279 38.3174 13.3279C38.3174 13.3279 38.3174 13.3279 38.3174 13.3279C38.3174 13.3279 38.3174 13.3279 38.3174 13.3279C38.3174 13.3279 38.3174 13.3279 38.3174 13.3279C38.3174 13.3279 38.3174 13.3279 38.3174 13.3279C38.3174 13.3279 38.3174 13.3279 38.3174 13.3279C38.3174 13.3279 38.3174 13.3279 38.3174 13.3279C38.3174 13.3279 38.3174 13.3279 38.3174 13.3279C38.3174 13.3279 38.3174 13.3279 38.3174 13.3279C38.3174 13.3279 38.3174 13.3279 38.3174 13.3279C38.3174 13.3279 38.3174 13.3279 38.3174 13.3279C38.3174 13.3279 38.3174 13.3279 38.3174 13.3279C38.3174 13.3279 38.3174 13.3279 38.3174 13.3279C38.3174 13.3279 38.3174 13.3279 38.3174 13.3279C38.3174 13.3279 38.3174 13.3279 38.3174 13.3279C38.3174 13.3279 38.3174 13.3279 38.3174 13.3279C38.3174 13.3279 38.3174 13.3279 38.3174 13.3279C38.3174 13.3279 38.3174 13.3279 38.3174 13.3279C38.3174 13.3279 38.3174 13.3279 38.3174 13.3279C38.3174 13.3279 38.3174 13.3279 38.3174 13.3279C38.3174 13.3279 38.3174 13.3279 38.3174 13.3279C38.3174 13.3279 38.3174 13.3279 38.3174 13.3279C38.3174 13.3279 38.3174 13.3279 38.3174 13.3279C38.3174 13.3279 38.3174 13.3279 38.3174 13.3279C38.3174 13.3279 38.3174 13.3279 38.3174 13.3279C38.3174 13.3279 38.3174 13.3279 38.3174 13.3279C38.3174 13.3279 38.3174 13.3279 38.3174 13.3279C38.3174 13.3279 38.3174 13.3279 38.3174 13.3279C38.3174 13.3279 38.3174 13.3279 38.3174 13.3279C38.3174 13.3279 38.3174 13.3279 38.3174 13.3279C38.3174 13.3279 38.3174 13.3279 38.3174 13.3279C38.3174 13.3279 38.3174 13.3279 38.3174 13.3279C38.3174 13.3279 38.3174 13.3279 38.3174 13.3279C38.3174 13.3279 38.3174 13.3279 38.3174 13.3279C38.3174 13.3279 38.3174 13.3279 38.3174 13.3279C38.3174 13.3279 38.3174 13.3279 38.3174 13.3279C38.3174 13.3279 38.3174 13.3279 38.3174 13.3279C38.3174 13.3279 38.3174 13.3279 38.3174 13.3279C38.3174 13.3279 38.3174 13.3279 38.3174 13.3279C38.3174 13.3279 38.3174 13.3279 38.3174 13.3279C38.3174 13.3279 38.3174 13.3279 38.3174 13.3279C38.3174 13.3279 38.3174 13.3279 38.3174 13.3279C38.3174 13.3279 38.3174 13.3279 38.3174 13.3279C38.3174 13.3279 38.3174 13.3279 38.3174 13.3279C38.3174 13.3279 38.3174 13.3279 38.3174 13.3279C38.3174 13.3279 38.3174 13.3279 38.3174 13.3279C38.3174 13.3279 38.3174 13.3279 38.3174 13.3279C38.3174 13.3279 38.3174 13.3279 38.3174 13.3279C38.3174 13.3279 38.3174 13.3279 38.3174 13.3279C38.3174 13.3279 38.3174 13.3279 38.3174 13.3279C38.3174 13.3279 38.3174 13.3279 38.3174 13.3279C38.3174 13.3279 38.3174 13.3279 38.3174 13.3279C38.3174 13.3279 38.3174 13.3279 38.3174 13.3279C38.3174 13.3279 38.3174 13.3279 38.3174 13.3279C38.3174 13.3279 38.3174 13.3279 38.3174 13.3279C38.3174 13.3279 38.3174 13.3279 38.3174 13.3279C38.3174 13.3279 38.3174 13.3279 38.3174 13.3279C38.3174 13.3279 38.3174 13.3279 38.3174 13.3279C38.3174 13.3279 38.3174 13.3279 38.3174 13.3279C38.3174 13.3279 38.3174 13.3279 38.3174 13.3279C38.3174 13.3279 38.3174 13.3279 38.3174 13.3279C38.3174 13.3279 38.3174 13.3279 38.3174 13.3279C38.3174 13.3279 38.3174 13.3279 38.3174 13.3279C38.3174 13.3279 38.3174 13.3279 38.3174 13.3279C38.3174 13.3279 38.3174 13.3279 38.3174 13.3279C38.3174 13.3279 38.3174 13.3279 38.3174 13.3279C38.3174 13.3279 38.3174 13.3279 38.3174 13.3279C38.3174 13.3279 38.3174 13.3279 38.3174 13.3279C38.3174 13.3279 38.3174 13.3279 38.3174 13.3279C38.3174 13.3279 38.3174 13.3279 38.3174 13.3279C38.3174 13.3279 38.3174 13.3279 38.3174 13.3279C38.3174 13.3279 38.3174 13.3279 38.3174 13.3279C38.3174 13.3279 38.3174 13.3279 38.3174 13.3279C38.3174 13.3279 38.3174 13.3279 38.3174 13.3279C38.3174 13.3279 38.3174 13.3279 38.3174 13.3279C38.3174 13.3279 38.3174 13.3279 38.3174 13.3279C38.3174 13.3279 38.3174 13.3279 38.3174 13.3279C38.3174 13.3279 38.3174 13.3279 38.3174 13.3279C38.3174 13.3279 38.3174 13.3279 38.3174 13.3279C38.3174 13.3279 38.3174 13.3279 38.3174 13.3279C38.3174 13.3279 38.3174 13.3279 38.3174 13.3279C38.3174 13.3279 38.3174 13.3279 38.3174 13.3279C38.3174 13.3279 38.3174 13.3279 38.3174 13.3279C38.3174 13.3279 38.3174 13.3279 38.3174 13.3279L35.6316 14.6644ZM16.1244 9.31408C23.7123 5.53804 32.3767 8.12381 35.6316 14.6644L38.3174 13.3279C34.2001 5.05404 23.5962 2.24487 14.7878 6.62826L16.1244 9.31408ZM8.62914 28.1018C5.37429 21.5612 8.53642 13.0901 16.1244 9.31408L14.7878 6.62826C5.97938 11.0117 1.82597 21.1646 5.94332 29.4384L8.62914 28.1018ZM8.62916 28.1019C8.62916 28.1019 8.62915 28.1019 8.62915 28.1018C8.62914 28.1018 8.62914 28.1018 8.62914 28.1018L5.94332 29.4384C5.94333 29.4384 5.94333 29.4384 5.94334 29.4384C5.94334 29.4384 5.94334 29.4384 5.94335 29.4384L8.62916 28.1019ZM7.95453 30.1131L37.6428 15.3391L36.3062 12.6533L6.61797 27.4272L7.95453 30.1131Z" fill="#BD0648" mask="url(#path-2-inside-1)"/>
<path d="M22.729 38.1361L23.2405 38.613L23.752 38.1361C29.5435 32.7358 37.2394 29.3644 45.731 29.1764V56.0885C37.0895 56.2728 29.2356 59.6342 23.2416 64.9848C17.246 59.61 9.39085 56.2715 0.75 56.0885V29.1764C9.24162 29.3644 16.9375 32.7358 22.729 38.1361ZM22.7954 59.888L23.2397 60.2155L23.6845 59.8888C28.9276 56.0378 35.0065 53.6053 41.4164 52.7437L41.3165 52.0004H42.0665V34.049V33.1511L41.1829 33.3109C35.5855 34.3238 30.398 36.9274 26.2405 40.8106L26.2404 40.8106L23.2425 43.6109L20.2427 40.7868L20.2397 40.7839C16.0286 36.8632 10.8622 34.2922 5.29814 33.2851L4.41456 33.1252V34.0231V51.9746V52.6308L5.06493 52.7179C11.4839 53.5783 17.5822 56.0443 22.7954 59.888ZM32.8196 20.6693C32.8196 25.9636 28.5329 30.2511 23.2405 30.2511C17.9481 30.2511 13.6614 25.9636 13.6614 20.6693C13.6614 15.375 17.9481 11.0875 23.2405 11.0875C28.5329 11.0875 32.8196 15.375 32.8196 20.6693ZM29.1551 20.6693C29.1551 17.414 26.4954 14.7534 23.2405 14.7534C19.9856 14.7534 17.3259 17.414 17.3259 20.6693C17.3259 23.9246 19.9856 26.5852 23.2405 26.5852C26.4954 26.5852 29.1551 23.9246 29.1551 20.6693Z" fill="#BD0648" stroke="#2E377F" stroke-width="1.5"/>
</svg>
