<svg width="78" height="49" viewBox="0 0 78 49" fill="none" xmlns="http://www.w3.org/2000/svg">
<path d="M34.568 34V28.36H35.808V34H34.568ZM36.8312 34V30.072H38.0152V30.752C38.2019 30.2933 38.6019 30.04 39.2152 29.992L39.5672 29.968L39.6392 30.984L38.9592 31.056C38.3619 31.1147 38.0632 31.4187 38.0632 31.968V34H36.8312ZM41.417 34.088C41.1237 34.088 40.865 34.032 40.641 33.92C40.417 33.808 40.2383 33.656 40.105 33.464C39.977 33.272 39.913 33.056 39.913 32.816C39.913 32.5333 39.9877 32.3067 40.137 32.136C40.2863 31.9653 40.529 31.8453 40.865 31.776C41.201 31.7013 41.6463 31.664 42.201 31.664H42.489V31.528C42.489 31.2933 42.4357 31.128 42.329 31.032C42.2223 30.9307 42.041 30.88 41.785 30.88C41.5717 30.88 41.345 30.9147 41.105 30.984C40.8703 31.048 40.6357 31.1467 40.401 31.28L40.073 30.472C40.2117 30.3813 40.3797 30.2987 40.577 30.224C40.7797 30.1493 40.9903 30.0933 41.209 30.056C41.4277 30.0133 41.6357 29.992 41.833 29.992C42.441 29.992 42.8943 30.1307 43.193 30.408C43.4917 30.68 43.641 31.104 43.641 31.68V34H42.513V33.408C42.433 33.616 42.297 33.7813 42.105 33.904C41.9183 34.0267 41.689 34.088 41.417 34.088ZM41.689 33.28C41.913 33.28 42.1023 33.2027 42.257 33.048C42.4117 32.8933 42.489 32.6933 42.489 32.448V32.288H42.209C41.7983 32.288 41.5077 32.3253 41.337 32.4C41.1663 32.4693 41.081 32.592 41.081 32.768C41.081 32.9173 41.1317 33.04 41.233 33.136C41.3397 33.232 41.4917 33.28 41.689 33.28ZM44.5421 34V28.36H45.7501V31.696H45.7661L47.2141 30.072H48.6461L46.9821 31.952L48.7261 34H47.2701L45.7661 32.304H45.7501V34H44.5421ZM50.4511 34.088C49.9497 34.088 49.5791 33.9493 49.3391 33.672C49.1044 33.3947 48.9871 32.9787 48.9871 32.424V30.072H50.1951V32.456C50.1951 32.92 50.3951 33.152 50.7951 33.152C51.0244 33.152 51.2111 33.072 51.3551 32.912C51.5044 32.7467 51.5791 32.5307 51.5791 32.264V30.072H52.7871V34H51.6111V33.464C51.3497 33.88 50.9631 34.088 50.4511 34.088ZM53.7218 34V30.072H54.9058V30.752C55.0925 30.2933 55.4925 30.04 56.1058 29.992L56.4578 29.968L56.5298 30.984L55.8498 31.056C55.2525 31.1147 54.9538 31.4187 54.9538 31.968V34H53.7218ZM56.9707 29.312V28.184H58.2747V29.312H56.9707ZM57.0187 34V30.072H58.2267V34H57.0187ZM61.4899 34V28.36H62.7299V30.624H65.3539V28.36H66.5939V34H65.3539V31.656H62.7299V34H61.4899ZM69.0761 34.088C68.5747 34.088 68.2041 33.9493 67.9641 33.672C67.7294 33.3947 67.6121 32.9787 67.6121 32.424V30.072H68.8201V32.456C68.8201 32.92 69.0201 33.152 69.4201 33.152C69.6494 33.152 69.8361 33.072 69.9801 32.912C70.1294 32.7467 70.2041 32.5307 70.2041 32.264V30.072H71.4121V34H70.2361V33.464C69.9747 33.88 69.5881 34.088 69.0761 34.088ZM74.7708 34.088C74.4935 34.088 74.2428 34.0267 74.0188 33.904C73.8001 33.7813 73.6375 33.6187 73.5308 33.416V34H72.3468V28.36H73.5548V30.6C73.6721 30.4133 73.8375 30.2667 74.0508 30.16C74.2695 30.048 74.5095 29.992 74.7708 29.992C75.1121 29.992 75.4108 30.0747 75.6668 30.24C75.9281 30.4053 76.1308 30.64 76.2748 30.944C76.4188 31.248 76.4908 31.6107 76.4908 32.032C76.4908 32.4533 76.4188 32.8187 76.2748 33.128C76.1308 33.432 75.9281 33.6693 75.6668 33.84C75.4108 34.0053 75.1121 34.088 74.7708 34.088ZM74.4108 33.184C74.6668 33.184 74.8748 33.0907 75.0348 32.904C75.1948 32.7173 75.2748 32.4267 75.2748 32.032C75.2748 31.6427 75.1948 31.3573 75.0348 31.176C74.8748 30.9893 74.6668 30.896 74.4108 30.896C74.1495 30.896 73.9388 30.9893 73.7788 31.176C73.6188 31.3573 73.5388 31.6427 73.5388 32.032C73.5388 32.4267 73.6188 32.7173 73.7788 32.904C73.9388 33.0907 74.1495 33.184 74.4108 33.184Z" fill="white"/>
<mask id="path-2-inside-1" fill="white">
<path fill-rule="evenodd" clip-rule="evenodd" d="M28.4253 10.2133C28.4253 10.2132 28.4253 10.2132 28.4252 10.2131C25.6235 4.58302 18.3031 2.53155 12.0747 5.63104C5.84625 8.73053 3.06838 15.8073 5.87012 21.4374C5.87015 21.4374 5.87017 21.4375 5.87019 21.4375L28.4253 10.2133Z"/>
</mask>
<path fill-rule="evenodd" clip-rule="evenodd" d="M28.4253 10.2133C28.4253 10.2132 28.4253 10.2132 28.4252 10.2131C25.6235 4.58302 18.3031 2.53155 12.0747 5.63104C5.84625 8.73053 3.06838 15.8073 5.87012 21.4374C5.87015 21.4374 5.87017 21.4375 5.87019 21.4375L28.4253 10.2133Z" fill="#2E377F"/>
<path d="M28.4253 10.2133L29.1827 11.7352L30.7046 10.9778L29.9473 9.45587L28.4253 10.2133ZM5.87019 21.4375L4.34823 22.1949L5.10561 23.7168L6.62758 22.9595L5.87019 21.4375ZM26.9033 10.9705C26.9033 10.9705 26.9033 10.9705 26.9033 10.9706C26.9033 10.9706 26.9033 10.9706 26.9033 10.9706L29.9473 9.45587C29.9473 9.45585 29.9472 9.45582 29.9472 9.4558C29.9472 9.45578 29.9472 9.45575 29.9472 9.45573L26.9033 10.9705ZM12.8321 7.153C18.3682 4.39803 24.59 6.32193 26.9033 10.9705L29.9472 9.45573C26.657 2.84411 18.238 0.665078 11.3173 4.10908L12.8321 7.153ZM7.39209 20.68C5.07879 16.0314 7.29593 9.90798 12.8321 7.153L11.3173 4.10908C4.39657 7.55308 1.05798 15.5831 4.34816 22.1947L7.39209 20.68ZM7.39215 20.6801C7.39214 20.6801 7.39212 20.68 7.39211 20.68C7.3921 20.68 7.39209 20.68 7.39209 20.68L4.34816 22.1947C4.34818 22.1948 4.34819 22.1948 4.3482 22.1948C4.34821 22.1949 4.34822 22.1949 4.34823 22.1949L7.39215 20.6801ZM6.62758 22.9595L29.1827 11.7352L27.6679 8.69129L5.11281 19.9155L6.62758 22.9595Z" fill="#BD0648" mask="url(#path-2-inside-1)"/>
<path d="M16.5908 28.656L17 29.0376L17.4092 28.656C21.6248 24.7252 27.2225 22.2671 33.4 22.1172V41.7C27.1023 41.8467 21.378 44.2954 17.0009 48.1889C12.6225 44.2778 6.89719 41.8456 0.600015 41.7V22.1172C6.77754 22.2671 12.3752 24.7252 16.5908 28.656ZM16.644 44.5709L16.9993 44.8329L17.3552 44.5715C21.1834 41.7597 25.622 39.9837 30.3022 39.3546L30.2222 38.7599H30.8222V25.6288V24.9105L30.1154 25.0384C26.0113 25.781 22.2077 27.69 19.1594 30.5372L19.1593 30.5372L17.0016 32.5527L14.8424 30.5199L14.84 30.5177C11.7525 27.643 7.96431 25.7579 3.88466 25.0195L3.17779 24.8915V25.6099V38.741V39.266L3.69809 39.3357C8.38488 39.9639 12.8375 41.7645 16.644 44.5709ZM23.9556 15.8418C23.9556 19.6861 20.8429 22.7993 17 22.7993C13.1571 22.7993 10.0445 19.6861 10.0445 15.8418C10.0445 11.9975 13.1571 8.8843 17 8.8843C20.8429 8.8843 23.9556 11.9975 23.9556 15.8418ZM21.3778 15.8418C21.3778 13.4323 19.4093 11.4631 17 11.4631C14.5907 11.4631 12.6222 13.4323 12.6222 15.8418C12.6222 18.2513 14.5907 20.2206 17 20.2206C19.4093 20.2206 21.3778 18.2513 21.3778 15.8418Z" fill="#BD0648" stroke="#2E377F" stroke-width="1.2"/>
</svg>
