<svg width="81" height="50" viewBox="0 0 81 50" fill="none" xmlns="http://www.w3.org/2000/svg">
<path d="M37.568 34V28.36H38.808V34H37.568ZM39.8312 34V30.072H41.0152V30.752C41.2019 30.2933 41.6019 30.04 42.2152 29.992L42.5672 29.968L42.6392 30.984L41.9592 31.056C41.3619 31.1147 41.0632 31.4187 41.0632 31.968V34H39.8312ZM44.417 34.088C44.1237 34.088 43.865 34.032 43.641 33.92C43.417 33.808 43.2383 33.656 43.105 33.464C42.977 33.272 42.913 33.056 42.913 32.816C42.913 32.5333 42.9877 32.3067 43.137 32.136C43.2863 31.9653 43.529 31.8453 43.865 31.776C44.201 31.7013 44.6463 31.664 45.201 31.664H45.489V31.528C45.489 31.2933 45.4357 31.128 45.329 31.032C45.2223 30.9307 45.041 30.88 44.785 30.88C44.5717 30.88 44.345 30.9147 44.105 30.984C43.8703 31.048 43.6357 31.1467 43.401 31.28L43.073 30.472C43.2117 30.3813 43.3797 30.2987 43.577 30.224C43.7797 30.1493 43.9903 30.0933 44.209 30.056C44.4277 30.0133 44.6357 29.992 44.833 29.992C45.441 29.992 45.8943 30.1307 46.193 30.408C46.4917 30.68 46.641 31.104 46.641 31.68V34H45.513V33.408C45.433 33.616 45.297 33.7813 45.105 33.904C44.9183 34.0267 44.689 34.088 44.417 34.088ZM44.689 33.28C44.913 33.28 45.1023 33.2027 45.257 33.048C45.4117 32.8933 45.489 32.6933 45.489 32.448V32.288H45.209C44.7983 32.288 44.5077 32.3253 44.337 32.4C44.1663 32.4693 44.081 32.592 44.081 32.768C44.081 32.9173 44.1317 33.04 44.233 33.136C44.3397 33.232 44.4917 33.28 44.689 33.28ZM47.5421 34V28.36H48.7501V31.696H48.7661L50.2141 30.072H51.6461L49.9821 31.952L51.7261 34H50.2701L48.7661 32.304H48.7501V34H47.5421ZM53.4511 34.088C52.9497 34.088 52.5791 33.9493 52.3391 33.672C52.1044 33.3947 51.9871 32.9787 51.9871 32.424V30.072H53.1951V32.456C53.1951 32.92 53.3951 33.152 53.7951 33.152C54.0244 33.152 54.2111 33.072 54.3551 32.912C54.5044 32.7467 54.5791 32.5307 54.5791 32.264V30.072H55.7871V34H54.6111V33.464C54.3497 33.88 53.9631 34.088 53.4511 34.088ZM56.7218 34V30.072H57.9058V30.752C58.0925 30.2933 58.4925 30.04 59.1058 29.992L59.4578 29.968L59.5298 30.984L58.8498 31.056C58.2525 31.1147 57.9538 31.4187 57.9538 31.968V34H56.7218ZM59.9707 29.312V28.184H61.2747V29.312H59.9707ZM60.0187 34V30.072H61.2267V34H60.0187ZM64.4899 34V28.36H65.7299V30.624H68.3539V28.36H69.5939V34H68.3539V31.656H65.7299V34H64.4899ZM72.0761 34.088C71.5747 34.088 71.2041 33.9493 70.9641 33.672C70.7294 33.3947 70.6121 32.9787 70.6121 32.424V30.072H71.8201V32.456C71.8201 32.92 72.0201 33.152 72.4201 33.152C72.6494 33.152 72.8361 33.072 72.9801 32.912C73.1294 32.7467 73.2041 32.5307 73.2041 32.264V30.072H74.4121V34H73.2361V33.464C72.9747 33.88 72.5881 34.088 72.0761 34.088ZM77.7708 34.088C77.4935 34.088 77.2428 34.0267 77.0188 33.904C76.8001 33.7813 76.6375 33.6187 76.5308 33.416V34H75.3468V28.36H76.5548V30.6C76.6721 30.4133 76.8375 30.2667 77.0508 30.16C77.2695 30.048 77.5095 29.992 77.7708 29.992C78.1121 29.992 78.4108 30.0747 78.6668 30.24C78.9281 30.4053 79.1308 30.64 79.2748 30.944C79.4188 31.248 79.4908 31.6107 79.4908 32.032C79.4908 32.4533 79.4188 32.8187 79.2748 33.128C79.1308 33.432 78.9281 33.6693 78.6668 33.84C78.4108 34.0053 78.1121 34.088 77.7708 34.088ZM77.4108 33.184C77.6668 33.184 77.8748 33.0907 78.0348 32.904C78.1948 32.7173 78.2748 32.4267 78.2748 32.032C78.2748 31.6427 78.1948 31.3573 78.0348 31.176C77.8748 30.9893 77.6668 30.896 77.4108 30.896C77.1495 30.896 76.9388 30.9893 76.7788 31.176C76.6188 31.3573 76.5388 31.6427 76.5388 32.032C76.5388 32.4267 76.6188 32.7173 76.7788 32.904C76.9388 33.0907 77.1495 33.184 77.4108 33.184Z" fill="#9DA5EA"/>
<mask id="path-2-inside-1" fill="white">
<path fill-rule="evenodd" clip-rule="evenodd" d="M29.4253 10.2133C29.4253 10.2132 29.4253 10.2132 29.4252 10.2131C26.6235 4.58302 19.3031 2.53155 13.0747 5.63104C6.84625 8.73053 4.06838 15.8073 6.87012 21.4374C6.87015 21.4374 6.87017 21.4375 6.87019 21.4375L29.4253 10.2133Z"/>
</mask>
<path fill-rule="evenodd" clip-rule="evenodd" d="M29.4253 10.2133C29.4253 10.2132 29.4253 10.2132 29.4252 10.2131C26.6235 4.58302 19.3031 2.53155 13.0747 5.63104C6.84625 8.73053 4.06838 15.8073 6.87012 21.4374C6.87015 21.4374 6.87017 21.4375 6.87019 21.4375L29.4253 10.2133Z" fill="#2E377F"/>
<path d="M29.4253 10.2133L30.1827 11.7352L31.7046 10.9778L30.9473 9.45587L29.4253 10.2133ZM6.87019 21.4375L5.34823 22.1949L6.10561 23.7168L7.62758 22.9595L6.87019 21.4375ZM27.9033 10.9705C27.9033 10.9705 27.9033 10.9705 27.9033 10.9706C27.9033 10.9706 27.9033 10.9706 27.9033 10.9706L30.9473 9.45587C30.9473 9.45585 30.9472 9.45582 30.9472 9.4558C30.9472 9.45578 30.9472 9.45575 30.9472 9.45573L27.9033 10.9705ZM13.8321 7.153C19.3682 4.39803 25.59 6.32193 27.9033 10.9705L30.9472 9.45573C27.657 2.84411 19.238 0.665078 12.3173 4.10908L13.8321 7.153ZM8.39209 20.68C6.07879 16.0314 8.29593 9.90798 13.8321 7.153L12.3173 4.10908C5.39657 7.55308 2.05798 15.5831 5.34816 22.1947L8.39209 20.68ZM8.39215 20.6801C8.39214 20.6801 8.39212 20.68 8.39211 20.68C8.3921 20.68 8.39209 20.68 8.39209 20.68L5.34816 22.1947C5.34818 22.1948 5.34819 22.1948 5.3482 22.1948C5.34821 22.1949 5.34822 22.1949 5.34823 22.1949L8.39215 20.6801ZM7.62758 22.9595L30.1827 11.7352L28.6679 8.69129L6.11281 19.9155L7.62758 22.9595Z" fill="#BD0648" mask="url(#path-2-inside-1)"/>
<path d="M18 23.3993C22.1745 23.3993 25.5556 20.0173 25.5556 15.8418C25.5556 11.6663 22.1745 8.2843 18 8.2843C13.8256 8.2843 10.4445 11.6663 10.4445 15.8418C10.4445 20.0173 13.8256 23.3993 18 23.3993ZM18 12.0631C20.0778 12.0631 21.7778 13.7635 21.7778 15.8418C21.7778 17.9201 20.0778 19.6206 18 19.6206C15.9222 19.6206 14.2222 17.9201 14.2222 15.8418C14.2222 13.7635 15.9222 12.0631 18 12.0631ZM18 28.2172C13.5422 24.0606 7.57335 21.5099 1.00002 21.5099V42.2931C7.57335 42.2931 13.5422 44.8437 18 49.0003C22.4578 44.8626 28.4267 42.2931 35 42.2931V21.5099C28.4267 21.5099 22.4578 24.0606 18 28.2172ZM31.2222 38.7599C26.4433 39.4023 21.91 41.2161 18 44.088C14.1124 41.2217 9.56465 39.3826 4.77779 38.741V25.6099C8.74446 26.3278 12.4278 28.1605 15.4311 30.9568L18 33.3752L20.5689 30.9757C23.5331 28.2072 27.2315 26.3509 31.2222 25.6288V38.7599V38.7599Z" fill="#BD0648" stroke="#2E377F" stroke-width="1.2"/>
</svg>
