<svg width="34" height="49" viewBox="0 0 34 49" fill="none" xmlns="http://www.w3.org/2000/svg">
<mask id="path-1-inside-1" fill="white">
<path fill-rule="evenodd" clip-rule="evenodd" d="M28.4253 10.1943C28.4253 10.1943 28.4252 10.1942 28.4252 10.1942C25.6235 4.5641 18.3031 2.51263 12.0747 5.61212C5.84623 8.71161 3.06836 15.7883 5.8701 21.4184C5.87013 21.4185 5.87015 21.4185 5.87017 21.4186L28.4253 10.1943Z"/>
</mask>
<path fill-rule="evenodd" clip-rule="evenodd" d="M28.4253 10.1943C28.4253 10.1943 28.4252 10.1942 28.4252 10.1942C25.6235 4.5641 18.3031 2.51263 12.0747 5.61212C5.84623 8.71161 3.06836 15.7883 5.8701 21.4184C5.87013 21.4185 5.87015 21.4185 5.87017 21.4186L28.4253 10.1943Z" fill="#2E377F"/>
<path d="M28.4253 10.1943L29.1827 11.7163L30.7046 10.9589L29.9472 9.43695L28.4253 10.1943ZM5.87017 21.4186L4.34821 22.176L5.10559 23.6979L6.62756 22.9405L5.87017 21.4186ZM26.9033 10.9516C26.9033 10.9516 26.9033 10.9516 26.9033 10.9516C26.9033 10.9517 26.9033 10.9517 26.9033 10.9517L29.9472 9.43695C29.9472 9.43693 29.9472 9.4369 29.9472 9.43688C29.9472 9.43686 29.9472 9.43683 29.9472 9.43681L26.9033 10.9516ZM12.832 7.13408C18.3682 4.37911 24.59 6.303 26.9033 10.9516L29.9472 9.43681C26.657 2.82519 18.238 0.646157 11.3173 4.09016L12.832 7.13408ZM7.39207 20.6611C5.07877 16.0125 7.29591 9.88906 12.832 7.13408L11.3173 4.09016C4.39655 7.53416 1.05796 15.5642 4.34814 22.1758L7.39207 20.6611ZM7.39213 20.6612C7.39212 20.6612 7.3921 20.6611 7.39209 20.6611C7.39208 20.6611 7.39207 20.6611 7.39207 20.6611L4.34814 22.1758C4.34816 22.1759 4.34817 22.1759 4.34818 22.1759C4.3482 22.1759 4.3482 22.1759 4.34821 22.176L7.39213 20.6612ZM6.62756 22.9405L29.1827 11.7163L27.6679 8.67237L5.11279 19.8966L6.62756 22.9405Z" fill="#BD0648" mask="url(#path-1-inside-1)"/>
<path d="M16.5908 28.6371L17 29.0187L17.4092 28.6371C21.6248 24.7063 27.2225 22.2482 33.4 22.0983V41.6811C27.1023 41.8278 21.378 44.2765 17.0009 48.17C12.6225 44.2589 6.89717 41.8267 0.6 41.6811V22.0983C6.77753 22.2482 12.3752 24.7063 16.5908 28.6371ZM16.6439 44.552L16.9993 44.814L17.3552 44.5526C21.1834 41.7408 25.6219 39.9648 30.3022 39.3357L30.2222 38.741H30.8222V25.6098V24.8915L30.1154 25.0194C26.0112 25.7621 22.2077 27.6711 19.1593 30.5183L19.1593 30.5183L17.0016 32.5338L14.8424 30.501L14.84 30.4988C11.7525 27.6241 7.96429 25.739 3.88464 25.0005L3.17778 24.8726V25.591V38.7221V39.2471L3.69807 39.3168C8.38487 39.945 12.8375 41.7456 16.6439 44.552ZM23.9556 15.8229C23.9556 19.6672 20.8429 22.7804 17 22.7804C13.1571 22.7804 10.0444 19.6672 10.0444 15.8229C10.0444 11.9786 13.1571 8.86538 17 8.86538C20.8429 8.86538 23.9556 11.9786 23.9556 15.8229ZM21.3778 15.8229C21.3778 13.4133 19.4093 11.4441 17 11.4441C14.5907 11.4441 12.6222 13.4133 12.6222 15.8229C12.6222 18.2324 14.5907 20.2016 17 20.2016C19.4093 20.2016 21.3778 18.2324 21.3778 15.8229Z" fill="#BD0648" stroke="#2E377F" stroke-width="1.2"/>
</svg>
